<svg xmlns="http://www.w3.org/2000/svg" xmlns:xlink="http://www.w3.org/1999/xlink" width="500" zoomAndPan="magnify" viewBox="0 0 375 374.999991" height="500" preserveAspectRatio="xMidYMid meet" version="1.0"><defs><g/></defs><g fill="#fcc931" fill-opacity="1"><g transform="translate(60.151453, 153.831542)"><g><path d="M 14.9375 0.65625 C 12.257812 0.65625 9.660156 0.328125 7.140625 -0.328125 C 4.617188 -0.992188 2.570312 -1.878906 1 -2.984375 L 4.0625 -9.875 C 5.539062 -8.894531 7.253906 -8.101562 9.203125 -7.5 C 11.160156 -6.90625 13.085938 -6.609375 14.984375 -6.609375 C 18.566406 -6.609375 20.359375 -7.507812 20.359375 -9.3125 C 20.359375 -10.25 19.847656 -10.945312 18.828125 -11.40625 C 17.804688 -11.863281 16.160156 -12.347656 13.890625 -12.859375 C 11.398438 -13.390625 9.320312 -13.960938 7.65625 -14.578125 C 5.988281 -15.191406 4.554688 -16.175781 3.359375 -17.53125 C 2.160156 -18.882812 1.5625 -20.710938 1.5625 -23.015625 C 1.5625 -25.023438 2.109375 -26.84375 3.203125 -28.46875 C 4.304688 -30.09375 5.953125 -31.375 8.140625 -32.3125 C 10.335938 -33.257812 13.023438 -33.734375 16.203125 -33.734375 C 18.378906 -33.734375 20.519531 -33.488281 22.625 -33 C 24.738281 -32.507812 26.597656 -31.796875 28.203125 -30.859375 L 25.328125 -23.90625 C 22.171875 -25.601562 19.113281 -26.453125 16.15625 -26.453125 C 14.300781 -26.453125 12.945312 -26.175781 12.09375 -25.625 C 11.238281 -25.082031 10.8125 -24.367188 10.8125 -23.484375 C 10.8125 -22.597656 11.316406 -21.9375 12.328125 -21.5 C 13.335938 -21.0625 14.960938 -20.601562 17.203125 -20.125 C 19.722656 -19.59375 21.804688 -19.019531 23.453125 -18.40625 C 25.109375 -17.789062 26.539062 -16.8125 27.75 -15.46875 C 28.96875 -14.132812 29.578125 -12.316406 29.578125 -10.015625 C 29.578125 -8.035156 29.023438 -6.238281 27.921875 -4.625 C 26.816406 -3.019531 25.160156 -1.738281 22.953125 -0.78125 C 20.753906 0.175781 18.082031 0.65625 14.9375 0.65625 Z M 14.9375 0.65625 "/></g></g></g><g fill="#fcc931" fill-opacity="1"><g transform="translate(90.720277, 153.831542)"><g><path d="M 0.9375 -13.25 C 0.9375 -13.3125 0.984375 -14.050781 1.078125 -15.46875 L 19.703125 -15.46875 C 19.316406 -16.789062 18.582031 -17.804688 17.5 -18.515625 C 16.414062 -19.222656 15.054688 -19.578125 13.421875 -19.578125 C 12.191406 -19.578125 11.125 -19.398438 10.21875 -19.046875 C 9.320312 -18.703125 8.421875 -18.140625 7.515625 -17.359375 L 2.78125 -22.265625 C 5.269531 -25.035156 8.910156 -26.421875 13.703125 -26.421875 C 16.691406 -26.421875 19.316406 -25.851562 21.578125 -24.71875 C 23.847656 -23.582031 25.601562 -22.003906 26.84375 -19.984375 C 28.09375 -17.972656 28.71875 -15.691406 28.71875 -13.140625 C 28.71875 -10.628906 28.113281 -8.375 26.90625 -6.375 C 25.695312 -4.375 24.019531 -2.804688 21.875 -1.671875 C 19.726562 -0.535156 17.316406 0.03125 14.640625 0.03125 C 12.085938 0.03125 9.769531 -0.492188 7.6875 -1.546875 C 5.613281 -2.597656 3.96875 -4.125 2.75 -6.125 C 1.539062 -8.125 0.9375 -10.5 0.9375 -13.25 Z M 14.59375 -6.34375 C 15.976562 -6.34375 17.132812 -6.734375 18.0625 -7.515625 C 19 -8.304688 19.59375 -9.378906 19.84375 -10.734375 L 9.359375 -10.734375 C 9.609375 -9.378906 10.195312 -8.304688 11.125 -7.515625 C 12.050781 -6.734375 13.207031 -6.34375 14.59375 -6.34375 Z M 14.59375 -6.34375 "/></g></g></g><g fill="#fcc931" fill-opacity="1"><g transform="translate(121.05286, 153.831542)"><g><path d="M 11.4375 -22.53125 C 12.351562 -23.695312 13.539062 -24.570312 15 -25.15625 C 16.46875 -25.738281 18.144531 -26.03125 20.03125 -26.03125 L 20.03125 -17.953125 C 19.21875 -18.046875 18.539062 -18.09375 18 -18.09375 C 16.082031 -18.09375 14.578125 -17.570312 13.484375 -16.53125 C 12.398438 -15.5 11.859375 -13.910156 11.859375 -11.765625 L 11.859375 0 L 2.875 0 L 2.875 -25.609375 L 11.4375 -25.609375 Z M 11.4375 -22.53125 "/></g></g></g><g fill="#fcc931" fill-opacity="1"><g transform="translate(141.983293, 153.831542)"><g><path d="M 12.65625 -24.671875 L 18.765625 -24.671875 L 18.765625 -17.953125 L 12.90625 -17.953125 L 12.90625 0 L 3.921875 0 L 3.921875 -17.953125 L 0.1875 -17.953125 L 0.1875 -24.671875 L 3.921875 -24.671875 L 3.921875 -25.328125 C 3.921875 -28.441406 4.859375 -30.910156 6.734375 -32.734375 C 8.609375 -34.566406 11.226562 -35.484375 14.59375 -35.484375 C 15.726562 -35.484375 16.832031 -35.375 17.90625 -35.15625 C 18.976562 -34.9375 19.859375 -34.601562 20.546875 -34.15625 L 18.328125 -27.828125 C 17.453125 -28.335938 16.554688 -28.59375 15.640625 -28.59375 C 14.691406 -28.59375 13.957031 -28.304688 13.4375 -27.734375 C 12.914062 -27.171875 12.65625 -26.335938 12.65625 -25.234375 Z M 12.65625 -24.671875 "/></g></g></g><g fill="#fcc931" fill-opacity="1"><g transform="translate(161.165584, 153.831542)"><g><path d="M 0.9375 -13.25 C 0.9375 -13.3125 0.984375 -14.050781 1.078125 -15.46875 L 19.703125 -15.46875 C 19.316406 -16.789062 18.582031 -17.804688 17.5 -18.515625 C 16.414062 -19.222656 15.054688 -19.578125 13.421875 -19.578125 C 12.191406 -19.578125 11.125 -19.398438 10.21875 -19.046875 C 9.320312 -18.703125 8.421875 -18.140625 7.515625 -17.359375 L 2.78125 -22.265625 C 5.269531 -25.035156 8.910156 -26.421875 13.703125 -26.421875 C 16.691406 -26.421875 19.316406 -25.851562 21.578125 -24.71875 C 23.847656 -23.582031 25.601562 -22.003906 26.84375 -19.984375 C 28.09375 -17.972656 28.71875 -15.691406 28.71875 -13.140625 C 28.71875 -10.628906 28.113281 -8.375 26.90625 -6.375 C 25.695312 -4.375 24.019531 -2.804688 21.875 -1.671875 C 19.726562 -0.535156 17.316406 0.03125 14.640625 0.03125 C 12.085938 0.03125 9.769531 -0.492188 7.6875 -1.546875 C 5.613281 -2.597656 3.96875 -4.125 2.75 -6.125 C 1.539062 -8.125 0.9375 -10.5 0.9375 -13.25 Z M 14.59375 -6.34375 C 15.976562 -6.34375 17.132812 -6.734375 18.0625 -7.515625 C 19 -8.304688 19.59375 -9.378906 19.84375 -10.734375 L 9.359375 -10.734375 C 9.609375 -9.378906 10.195312 -8.304688 11.125 -7.515625 C 12.050781 -6.734375 13.207031 -6.34375 14.59375 -6.34375 Z M 14.59375 -6.34375 "/></g></g></g><g fill="#fcc931" fill-opacity="1"><g transform="translate(191.498167, 153.831542)"><g><path d="M 2.875 -35.0625 L 11.859375 -35.0625 L 11.859375 0 L 2.875 0 Z M 2.875 -35.0625 "/></g></g></g><g fill="#fcc931" fill-opacity="1"><g transform="translate(206.286481, 153.831542)"><g><path d="M 2.875 -25.609375 L 11.859375 -25.609375 L 11.859375 0 L 2.875 0 Z M 7.375 -28.4375 C 5.738281 -28.4375 4.414062 -28.894531 3.40625 -29.8125 C 2.394531 -30.726562 1.890625 -31.863281 1.890625 -33.21875 C 1.890625 -34.570312 2.394531 -35.703125 3.40625 -36.609375 C 4.414062 -37.523438 5.738281 -37.984375 7.375 -37.984375 C 9.007812 -37.984375 10.332031 -37.550781 11.34375 -36.6875 C 12.351562 -35.820312 12.859375 -34.710938 12.859375 -33.359375 C 12.859375 -31.941406 12.351562 -30.765625 11.34375 -29.828125 C 10.332031 -28.898438 9.007812 -28.4375 7.375 -28.4375 Z M 7.375 -28.4375 "/></g></g></g><g fill="#ffffff" fill-opacity="1"><g transform="translate(221.06622, 153.831542)"><g><path d="M 18.421875 -33.078125 C 21.421875 -33.078125 24.019531 -32.578125 26.21875 -31.578125 C 28.425781 -30.585938 30.128906 -29.171875 31.328125 -27.328125 C 32.523438 -25.484375 33.125 -23.320312 33.125 -20.84375 C 33.125 -18.351562 32.523438 -16.191406 31.328125 -14.359375 C 30.128906 -12.535156 28.425781 -11.125 26.21875 -10.125 C 24.019531 -9.132812 21.421875 -8.640625 18.421875 -8.640625 L 12.65625 -8.640625 L 12.65625 0 L 3.3125 0 L 3.3125 -33.078125 Z M 17.859375 -16.015625 C 19.785156 -16.015625 21.234375 -16.429688 22.203125 -17.265625 C 23.179688 -18.097656 23.671875 -19.289062 23.671875 -20.84375 C 23.671875 -22.382812 23.179688 -23.578125 22.203125 -24.421875 C 21.234375 -25.273438 19.785156 -25.703125 17.859375 -25.703125 L 12.65625 -25.703125 L 12.65625 -16.015625 Z M 17.859375 -16.015625 "/></g></g></g><g fill="#ffffff" fill-opacity="1"><g transform="translate(255.887271, 153.831542)"><g><path d="M 13.796875 -26.03125 C 18.046875 -26.03125 21.289062 -25.0625 23.53125 -23.125 C 25.769531 -21.1875 26.890625 -18.21875 26.890625 -14.21875 L 26.890625 0 L 18.515625 0 L 18.515625 -3.3125 C 17.222656 -0.820312 14.707031 0.421875 10.96875 0.421875 C 8.976562 0.421875 7.257812 0.078125 5.8125 -0.609375 C 4.363281 -1.304688 3.269531 -2.242188 2.53125 -3.421875 C 1.789062 -4.609375 1.421875 -5.957031 1.421875 -7.46875 C 1.421875 -9.894531 2.347656 -11.773438 4.203125 -13.109375 C 6.066406 -14.453125 8.9375 -15.125 12.8125 -15.125 L 17.90625 -15.125 C 17.75 -17.832031 15.9375 -19.1875 12.46875 -19.1875 C 11.238281 -19.1875 9.992188 -18.988281 8.734375 -18.59375 C 7.472656 -18.195312 6.40625 -17.65625 5.53125 -16.96875 L 2.5 -23.0625 C 3.914062 -24 5.640625 -24.726562 7.671875 -25.25 C 9.703125 -25.769531 11.742188 -26.03125 13.796875 -26.03125 Z M 13.46875 -5.25 C 14.507812 -5.25 15.421875 -5.5 16.203125 -6 C 16.992188 -6.5 17.5625 -7.238281 17.90625 -8.21875 L 17.90625 -10.4375 L 14.03125 -10.4375 C 11.414062 -10.4375 10.109375 -9.570312 10.109375 -7.84375 C 10.109375 -7.050781 10.40625 -6.421875 11 -5.953125 C 11.601562 -5.484375 12.425781 -5.25 13.46875 -5.25 Z M 13.46875 -5.25 "/></g></g></g><g fill="#ffffff" fill-opacity="1"><g transform="translate(285.5584, 153.831542)"><g><path d="M 29.859375 -25.609375 L 18.8125 1.046875 C 17.519531 4.191406 15.941406 6.398438 14.078125 7.671875 C 12.222656 8.953125 9.957031 9.59375 7.28125 9.59375 C 5.925781 9.59375 4.5625 9.378906 3.1875 8.953125 C 1.820312 8.523438 0.710938 7.96875 -0.140625 7.28125 L 2.984375 1 C 3.484375 1.46875 4.085938 1.832031 4.796875 2.09375 C 5.503906 2.363281 6.222656 2.5 6.953125 2.5 C 7.796875 2.5 8.492188 2.328125 9.046875 1.984375 C 9.597656 1.640625 10.0625 1.085938 10.4375 0.328125 L -0.515625 -25.609375 L 8.6875 -25.609375 L 14.984375 -9.96875 L 21.3125 -25.609375 Z M 29.859375 -25.609375 "/></g></g></g><g fill="#c8d9ee" fill-opacity="1"><g transform="translate(6.279171, 182.310281)"><g><path d="M 8.5625 0.28125 C 7.0625 0.28125 5.710938 -0.0351562 4.515625 -0.671875 C 3.328125 -1.304688 2.390625 -2.179688 1.703125 -3.296875 C 1.023438 -4.421875 0.6875 -5.6875 0.6875 -7.09375 C 0.6875 -8.488281 1.023438 -9.75 1.703125 -10.875 C 2.390625 -12 3.328125 -12.875 4.515625 -13.5 C 5.710938 -14.132812 7.0625 -14.453125 8.5625 -14.453125 C 10.0625 -14.453125 11.40625 -14.132812 12.59375 -13.5 C 13.789062 -12.875 14.726562 -12 15.40625 -10.875 C 16.09375 -9.75 16.4375 -8.488281 16.4375 -7.09375 C 16.4375 -5.6875 16.09375 -4.421875 15.40625 -3.296875 C 14.726562 -2.179688 13.789062 -1.304688 12.59375 -0.671875 C 11.40625 -0.0351562 10.0625 0.28125 8.5625 0.28125 Z M 8.5625 -3.03125 C 9.28125 -3.03125 9.925781 -3.195312 10.5 -3.53125 C 11.082031 -3.875 11.539062 -4.351562 11.875 -4.96875 C 12.21875 -5.582031 12.390625 -6.289062 12.390625 -7.09375 C 12.390625 -7.882812 12.21875 -8.585938 11.875 -9.203125 C 11.539062 -9.816406 11.082031 -10.289062 10.5 -10.625 C 9.925781 -10.96875 9.28125 -11.140625 8.5625 -11.140625 C 7.851562 -11.140625 7.207031 -10.96875 6.625 -10.625 C 6.039062 -10.289062 5.578125 -9.816406 5.234375 -9.203125 C 4.898438 -8.585938 4.734375 -7.882812 4.734375 -7.09375 C 4.734375 -6.289062 4.898438 -5.582031 5.234375 -4.96875 C 5.578125 -4.351562 6.039062 -3.875 6.625 -3.53125 C 7.207031 -3.195312 7.851562 -3.03125 8.5625 -3.03125 Z M 6.421875 -15.3125 C 5.960938 -15.3125 5.578125 -15.457031 5.265625 -15.75 C 4.960938 -16.039062 4.8125 -16.421875 4.8125 -16.890625 C 4.8125 -17.359375 4.960938 -17.738281 5.265625 -18.03125 C 5.578125 -18.332031 5.960938 -18.484375 6.421875 -18.484375 C 6.878906 -18.484375 7.257812 -18.332031 7.5625 -18.03125 C 7.863281 -17.738281 8.015625 -17.359375 8.015625 -16.890625 C 8.015625 -16.421875 7.863281 -16.039062 7.5625 -15.75 C 7.257812 -15.457031 6.878906 -15.3125 6.421875 -15.3125 Z M 10.71875 -15.3125 C 10.257812 -15.3125 9.875 -15.457031 9.5625 -15.75 C 9.257812 -16.039062 9.109375 -16.421875 9.109375 -16.890625 C 9.109375 -17.359375 9.257812 -17.738281 9.5625 -18.03125 C 9.875 -18.332031 10.257812 -18.484375 10.71875 -18.484375 C 11.175781 -18.484375 11.554688 -18.332031 11.859375 -18.03125 C 12.160156 -17.738281 12.3125 -17.359375 12.3125 -16.890625 C 12.3125 -16.421875 12.160156 -16.039062 11.859375 -15.75 C 11.554688 -15.457031 11.175781 -15.3125 10.71875 -15.3125 Z M 10.71875 -15.3125 "/></g></g></g><g fill="#c8d9ee" fill-opacity="1"><g transform="translate(23.412014, 182.310281)"><g><path d="M 12.90625 -15.03125 L 12.90625 0 L 9.234375 0 L 9.234375 -1.09375 C 8.515625 -0.238281 7.441406 0.1875 6.015625 0.1875 C 5.015625 0.1875 4.101562 -0.046875 3.28125 -0.515625 C 2.457031 -0.984375 1.804688 -1.648438 1.328125 -2.515625 C 0.847656 -3.378906 0.609375 -4.378906 0.609375 -5.515625 C 0.609375 -6.640625 0.847656 -7.628906 1.328125 -8.484375 C 1.804688 -9.347656 2.457031 -10.007812 3.28125 -10.46875 C 4.101562 -10.925781 5.015625 -11.15625 6.015625 -11.15625 C 7.328125 -11.15625 8.335938 -10.78125 9.046875 -10.03125 L 9.046875 -15.03125 Z M 6.828125 -2.875 C 7.484375 -2.875 8.023438 -3.101562 8.453125 -3.5625 C 8.890625 -4.03125 9.109375 -4.679688 9.109375 -5.515625 C 9.109375 -6.316406 8.894531 -6.945312 8.46875 -7.40625 C 8.050781 -7.863281 7.503906 -8.09375 6.828125 -8.09375 C 6.148438 -8.09375 5.59375 -7.863281 5.15625 -7.40625 C 4.726562 -6.945312 4.515625 -6.316406 4.515625 -5.515625 C 4.515625 -4.679688 4.726562 -4.03125 5.15625 -3.5625 C 5.59375 -3.101562 6.148438 -2.875 6.828125 -2.875 Z M 6.828125 -2.875 "/></g></g></g><g fill="#c8d9ee" fill-opacity="1"><g transform="translate(37.547622, 182.310281)"><g><path d="M 0.546875 -5.53125 C 0.546875 -5.5625 0.566406 -5.878906 0.609375 -6.484375 L 8.578125 -6.484375 C 8.421875 -7.046875 8.109375 -7.476562 7.640625 -7.78125 C 7.171875 -8.09375 6.585938 -8.25 5.890625 -8.25 C 5.367188 -8.25 4.914062 -8.171875 4.53125 -8.015625 C 4.144531 -7.867188 3.753906 -7.628906 3.359375 -7.296875 L 1.34375 -9.40625 C 2.40625 -10.59375 3.960938 -11.1875 6.015625 -11.1875 C 7.296875 -11.1875 8.421875 -10.941406 9.390625 -10.453125 C 10.367188 -9.960938 11.125 -9.285156 11.65625 -8.421875 C 12.1875 -7.554688 12.453125 -6.578125 12.453125 -5.484375 C 12.453125 -4.410156 12.191406 -3.441406 11.671875 -2.578125 C 11.148438 -1.722656 10.429688 -1.050781 9.515625 -0.5625 C 8.597656 -0.0820312 7.566406 0.15625 6.421875 0.15625 C 5.328125 0.15625 4.332031 -0.0664062 3.4375 -0.515625 C 2.550781 -0.972656 1.847656 -1.628906 1.328125 -2.484375 C 0.804688 -3.335938 0.546875 -4.351562 0.546875 -5.53125 Z M 6.40625 -2.578125 C 7 -2.578125 7.492188 -2.742188 7.890625 -3.078125 C 8.285156 -3.421875 8.535156 -3.878906 8.640625 -4.453125 L 4.15625 -4.453125 C 4.257812 -3.878906 4.507812 -3.421875 4.90625 -3.078125 C 5.300781 -2.742188 5.800781 -2.578125 6.40625 -2.578125 Z M 6.40625 -2.578125 "/></g></g></g><g fill="#c8d9ee" fill-opacity="1"><g transform="translate(50.549139, 182.310281)"><g><path d="M 8.390625 -11.15625 C 9.742188 -11.15625 10.835938 -10.75 11.671875 -9.9375 C 12.503906 -9.132812 12.921875 -7.914062 12.921875 -6.28125 L 12.921875 0 L 9.078125 0 L 9.078125 -5.65625 C 9.078125 -7.144531 8.472656 -7.890625 7.265625 -7.890625 C 6.609375 -7.890625 6.078125 -7.671875 5.671875 -7.234375 C 5.273438 -6.804688 5.078125 -6.164062 5.078125 -5.3125 L 5.078125 0 L 1.234375 0 L 1.234375 -10.96875 L 4.90625 -10.96875 L 4.90625 -9.78125 C 5.332031 -10.226562 5.84375 -10.566406 6.4375 -10.796875 C 7.03125 -11.035156 7.679688 -11.15625 8.390625 -11.15625 Z M 8.390625 -11.15625 "/></g></g></g><g fill="#c8d9ee" fill-opacity="1"><g transform="translate(64.644248, 182.310281)"><g><path d="M 1.234375 -10.96875 L 5.078125 -10.96875 L 5.078125 0 L 1.234375 0 Z M 3.15625 -12.1875 C 2.457031 -12.1875 1.890625 -12.378906 1.453125 -12.765625 C 1.023438 -13.160156 0.8125 -13.648438 0.8125 -14.234375 C 0.8125 -14.816406 1.023438 -15.300781 1.453125 -15.6875 C 1.890625 -16.082031 2.457031 -16.28125 3.15625 -16.28125 C 3.863281 -16.28125 4.429688 -16.09375 4.859375 -15.71875 C 5.296875 -15.351562 5.515625 -14.878906 5.515625 -14.296875 C 5.515625 -13.691406 5.296875 -13.1875 4.859375 -12.78125 C 4.429688 -12.382812 3.863281 -12.1875 3.15625 -12.1875 Z M 3.15625 -12.1875 "/></g></g></g><g fill="#c8d9ee" fill-opacity="1"><g transform="translate(70.982996, 182.310281)"><g><path d="M 5.21875 0.1875 C 4.300781 0.1875 3.394531 0.0820312 2.5 -0.125 C 1.613281 -0.34375 0.898438 -0.617188 0.359375 -0.953125 L 1.515625 -3.578125 C 2.015625 -3.273438 2.609375 -3.03125 3.296875 -2.84375 C 3.984375 -2.664062 4.664062 -2.578125 5.34375 -2.578125 C 5.96875 -2.578125 6.410156 -2.640625 6.671875 -2.765625 C 6.929688 -2.890625 7.0625 -3.078125 7.0625 -3.328125 C 7.0625 -3.566406 6.898438 -3.734375 6.578125 -3.828125 C 6.265625 -3.929688 5.765625 -4.03125 5.078125 -4.125 C 4.203125 -4.238281 3.457031 -4.378906 2.84375 -4.546875 C 2.226562 -4.722656 1.695312 -5.046875 1.25 -5.515625 C 0.8125 -5.992188 0.59375 -6.660156 0.59375 -7.515625 C 0.59375 -8.210938 0.800781 -8.832031 1.21875 -9.375 C 1.632812 -9.925781 2.242188 -10.359375 3.046875 -10.671875 C 3.847656 -10.992188 4.8125 -11.15625 5.9375 -11.15625 C 6.726562 -11.15625 7.515625 -11.070312 8.296875 -10.90625 C 9.085938 -10.75 9.742188 -10.519531 10.265625 -10.21875 L 9.109375 -7.609375 C 8.140625 -8.148438 7.085938 -8.421875 5.953125 -8.421875 C 5.347656 -8.421875 4.898438 -8.347656 4.609375 -8.203125 C 4.328125 -8.066406 4.1875 -7.882812 4.1875 -7.65625 C 4.1875 -7.394531 4.34375 -7.210938 4.65625 -7.109375 C 4.96875 -7.015625 5.484375 -6.910156 6.203125 -6.796875 C 7.097656 -6.660156 7.84375 -6.503906 8.4375 -6.328125 C 9.03125 -6.160156 9.546875 -5.84375 9.984375 -5.375 C 10.429688 -4.90625 10.65625 -4.253906 10.65625 -3.421875 C 10.65625 -2.734375 10.441406 -2.113281 10.015625 -1.5625 C 9.597656 -1.019531 8.984375 -0.59375 8.171875 -0.28125 C 7.359375 0.03125 6.375 0.1875 5.21875 0.1875 Z M 4.671875 4.78125 C 4.335938 4.78125 3.988281 4.738281 3.625 4.65625 C 3.269531 4.570312 2.976562 4.472656 2.75 4.359375 L 3.28125 2.828125 C 3.6875 3.023438 4.101562 3.125 4.53125 3.125 C 5.207031 3.125 5.546875 2.929688 5.546875 2.546875 C 5.546875 2.210938 5.242188 2.046875 4.640625 2.046875 L 3.890625 2.046875 L 4.40625 -0.1875 L 6.421875 -0.1875 L 6.140625 1.03125 C 6.734375 1.101562 7.171875 1.289062 7.453125 1.59375 C 7.734375 1.894531 7.875 2.253906 7.875 2.671875 C 7.875 3.316406 7.582031 3.828125 7 4.203125 C 6.425781 4.585938 5.648438 4.78125 4.671875 4.78125 Z M 4.671875 4.78125 "/></g></g></g><g fill="#c8d9ee" fill-opacity="1"><g transform="translate(82.060611, 182.310281)"><g/></g></g><g fill="#c8d9ee" fill-opacity="1"><g transform="translate(87.953819, 182.310281)"><g><path d="M 5.21875 0.1875 C 4.300781 0.1875 3.394531 0.0820312 2.5 -0.125 C 1.613281 -0.34375 0.898438 -0.617188 0.359375 -0.953125 L 1.515625 -3.578125 C 2.015625 -3.273438 2.609375 -3.03125 3.296875 -2.84375 C 3.984375 -2.664062 4.664062 -2.578125 5.34375 -2.578125 C 5.96875 -2.578125 6.410156 -2.640625 6.671875 -2.765625 C 6.929688 -2.890625 7.0625 -3.078125 7.0625 -3.328125 C 7.0625 -3.566406 6.898438 -3.734375 6.578125 -3.828125 C 6.265625 -3.929688 5.765625 -4.03125 5.078125 -4.125 C 4.203125 -4.238281 3.457031 -4.378906 2.84375 -4.546875 C 2.226562 -4.722656 1.695312 -5.046875 1.25 -5.515625 C 0.8125 -5.992188 0.59375 -6.660156 0.59375 -7.515625 C 0.59375 -8.210938 0.800781 -8.832031 1.21875 -9.375 C 1.632812 -9.925781 2.242188 -10.359375 3.046875 -10.671875 C 3.847656 -10.992188 4.8125 -11.15625 5.9375 -11.15625 C 6.726562 -11.15625 7.515625 -11.070312 8.296875 -10.90625 C 9.085938 -10.75 9.742188 -10.519531 10.265625 -10.21875 L 9.109375 -7.609375 C 8.140625 -8.148438 7.085938 -8.421875 5.953125 -8.421875 C 5.347656 -8.421875 4.898438 -8.347656 4.609375 -8.203125 C 4.328125 -8.066406 4.1875 -7.882812 4.1875 -7.65625 C 4.1875 -7.394531 4.34375 -7.210938 4.65625 -7.109375 C 4.96875 -7.015625 5.484375 -6.910156 6.203125 -6.796875 C 7.097656 -6.660156 7.84375 -6.503906 8.4375 -6.328125 C 9.03125 -6.160156 9.546875 -5.84375 9.984375 -5.375 C 10.429688 -4.90625 10.65625 -4.253906 10.65625 -3.421875 C 10.65625 -2.734375 10.441406 -2.113281 10.015625 -1.5625 C 9.597656 -1.019531 8.984375 -0.59375 8.171875 -0.28125 C 7.359375 0.03125 6.375 0.1875 5.21875 0.1875 Z M 5.21875 0.1875 "/></g></g></g><g fill="#c8d9ee" fill-opacity="1"><g transform="translate(99.031433, 182.310281)"><g><path d="M 1.234375 -10.96875 L 5.078125 -10.96875 L 5.078125 0 L 1.234375 0 Z M 3.15625 -12.1875 C 2.457031 -12.1875 1.890625 -12.378906 1.453125 -12.765625 C 1.023438 -13.160156 0.8125 -13.648438 0.8125 -14.234375 C 0.8125 -14.816406 1.023438 -15.300781 1.453125 -15.6875 C 1.890625 -16.082031 2.457031 -16.28125 3.15625 -16.28125 C 3.863281 -16.28125 4.429688 -16.09375 4.859375 -15.71875 C 5.296875 -15.351562 5.515625 -14.878906 5.515625 -14.296875 C 5.515625 -13.691406 5.296875 -13.1875 4.859375 -12.78125 C 4.429688 -12.382812 3.863281 -12.1875 3.15625 -12.1875 Z M 3.15625 -12.1875 "/></g></g></g><g fill="#c8d9ee" fill-opacity="1"><g transform="translate(105.370181, 182.310281)"><g><path d="M 10.796875 -2.875 L 10.796875 0 L 0.671875 0 L 0.671875 -2.265625 L 5.75 -8.125 L 0.8125 -8.125 L 0.8125 -10.96875 L 10.59375 -10.96875 L 10.59375 -8.734375 L 5.515625 -2.875 Z M 10.796875 -2.875 "/></g></g></g><g fill="#c8d9ee" fill-opacity="1"><g transform="translate(116.630066, 182.310281)"><g><path d="M 12.90625 -15.03125 L 12.90625 0 L 9.234375 0 L 9.234375 -1.09375 C 8.515625 -0.238281 7.441406 0.1875 6.015625 0.1875 C 5.015625 0.1875 4.101562 -0.046875 3.28125 -0.515625 C 2.457031 -0.984375 1.804688 -1.648438 1.328125 -2.515625 C 0.847656 -3.378906 0.609375 -4.378906 0.609375 -5.515625 C 0.609375 -6.640625 0.847656 -7.628906 1.328125 -8.484375 C 1.804688 -9.347656 2.457031 -10.007812 3.28125 -10.46875 C 4.101562 -10.925781 5.015625 -11.15625 6.015625 -11.15625 C 7.328125 -11.15625 8.335938 -10.78125 9.046875 -10.03125 L 9.046875 -15.03125 Z M 6.828125 -2.875 C 7.484375 -2.875 8.023438 -3.101562 8.453125 -3.5625 C 8.890625 -4.03125 9.109375 -4.679688 9.109375 -5.515625 C 9.109375 -6.316406 8.894531 -6.945312 8.46875 -7.40625 C 8.050781 -7.863281 7.503906 -8.09375 6.828125 -8.09375 C 6.148438 -8.09375 5.59375 -7.863281 5.15625 -7.40625 C 4.726562 -6.945312 4.515625 -6.316406 4.515625 -5.515625 C 4.515625 -4.679688 4.726562 -4.03125 5.15625 -3.5625 C 5.59375 -3.101562 6.148438 -2.875 6.828125 -2.875 Z M 6.828125 -2.875 "/></g></g></g><g fill="#c8d9ee" fill-opacity="1"><g transform="translate(130.765675, 182.310281)"><g><path d="M 0.546875 -5.53125 C 0.546875 -5.5625 0.566406 -5.878906 0.609375 -6.484375 L 8.578125 -6.484375 C 8.421875 -7.046875 8.109375 -7.476562 7.640625 -7.78125 C 7.171875 -8.09375 6.585938 -8.25 5.890625 -8.25 C 5.367188 -8.25 4.914062 -8.171875 4.53125 -8.015625 C 4.144531 -7.867188 3.753906 -7.628906 3.359375 -7.296875 L 1.34375 -9.40625 C 2.40625 -10.59375 3.960938 -11.1875 6.015625 -11.1875 C 7.296875 -11.1875 8.421875 -10.941406 9.390625 -10.453125 C 10.367188 -9.960938 11.125 -9.285156 11.65625 -8.421875 C 12.1875 -7.554688 12.453125 -6.578125 12.453125 -5.484375 C 12.453125 -4.410156 12.191406 -3.441406 11.671875 -2.578125 C 11.148438 -1.722656 10.429688 -1.050781 9.515625 -0.5625 C 8.597656 -0.0820312 7.566406 0.15625 6.421875 0.15625 C 5.328125 0.15625 4.332031 -0.0664062 3.4375 -0.515625 C 2.550781 -0.972656 1.847656 -1.628906 1.328125 -2.484375 C 0.804688 -3.335938 0.546875 -4.351562 0.546875 -5.53125 Z M 6.40625 -2.578125 C 7 -2.578125 7.492188 -2.742188 7.890625 -3.078125 C 8.285156 -3.421875 8.535156 -3.878906 8.640625 -4.453125 L 4.15625 -4.453125 C 4.257812 -3.878906 4.507812 -3.421875 4.90625 -3.078125 C 5.300781 -2.742188 5.800781 -2.578125 6.40625 -2.578125 Z M 6.40625 -2.578125 "/></g></g></g><g fill="#c8d9ee" fill-opacity="1"><g transform="translate(143.767192, 182.310281)"><g><path d="M 8.390625 -11.15625 C 9.742188 -11.15625 10.835938 -10.75 11.671875 -9.9375 C 12.503906 -9.132812 12.921875 -7.914062 12.921875 -6.28125 L 12.921875 0 L 9.078125 0 L 9.078125 -5.65625 C 9.078125 -7.144531 8.472656 -7.890625 7.265625 -7.890625 C 6.609375 -7.890625 6.078125 -7.671875 5.671875 -7.234375 C 5.273438 -6.804688 5.078125 -6.164062 5.078125 -5.3125 L 5.078125 0 L 1.234375 0 L 1.234375 -10.96875 L 4.90625 -10.96875 L 4.90625 -9.78125 C 5.332031 -10.226562 5.84375 -10.566406 6.4375 -10.796875 C 7.03125 -11.035156 7.679688 -11.15625 8.390625 -11.15625 Z M 8.390625 -11.15625 "/></g></g></g><g fill="#c8d9ee" fill-opacity="1"><g transform="translate(157.8623, 182.310281)"><g><path d="M 2.875 -4.375 C 3.539062 -4.375 4.085938 -4.164062 4.515625 -3.75 C 4.941406 -3.332031 5.15625 -2.785156 5.15625 -2.109375 C 5.15625 -1.796875 5.113281 -1.484375 5.03125 -1.171875 C 4.957031 -0.859375 4.78125 -0.394531 4.5 0.21875 L 3.21875 3.171875 L 0.8125 3.171875 L 1.765625 -0.125 C 1.378906 -0.300781 1.082031 -0.5625 0.875 -0.90625 C 0.664062 -1.25 0.5625 -1.648438 0.5625 -2.109375 C 0.5625 -2.785156 0.773438 -3.332031 1.203125 -3.75 C 1.640625 -4.164062 2.195312 -4.375 2.875 -4.375 Z M 2.875 -4.375 "/></g></g></g><g fill="#c8d9ee" fill-opacity="1"><g transform="translate(163.593498, 182.310281)"><g/></g></g><g fill="#fcc931" fill-opacity="1"><g transform="translate(169.478173, 182.310281)"><g><path d="M 4.4375 -11 L 0.078125 -11 L 0.078125 -14.171875 L 12.78125 -14.171875 L 12.78125 -11 L 8.4375 -11 L 8.4375 0 L 4.4375 0 Z M 4.4375 -11 "/></g></g></g><g fill="#fcc931" fill-opacity="1"><g transform="translate(182.33793, 182.310281)"><g><path d="M 7.984375 -14.453125 C 9.503906 -14.453125 10.859375 -14.140625 12.046875 -13.515625 C 13.242188 -12.890625 14.175781 -12.015625 14.84375 -10.890625 C 15.519531 -9.773438 15.859375 -8.507812 15.859375 -7.09375 C 15.859375 -5.675781 15.53125 -4.40625 14.875 -3.28125 C 14.21875 -2.15625 13.316406 -1.28125 12.171875 -0.65625 C 11.023438 -0.03125 9.726562 0.28125 8.28125 0.28125 C 6.8125 0.28125 5.5 -0.03125 4.34375 -0.65625 C 3.1875 -1.28125 2.285156 -2.164062 1.640625 -3.3125 C 1.003906 -4.46875 0.6875 -5.78125 0.6875 -7.25 L 0.6875 -7.984375 L 11.765625 -7.984375 C 11.617188 -8.921875 11.191406 -9.679688 10.484375 -10.265625 C 9.785156 -10.847656 8.9375 -11.140625 7.9375 -11.140625 C 7.257812 -11.140625 6.5625 -10.988281 5.84375 -10.6875 C 5.125 -10.394531 4.53125 -9.992188 4.0625 -9.484375 L 1.703125 -11.984375 C 2.390625 -12.710938 3.300781 -13.304688 4.4375 -13.765625 C 5.570312 -14.222656 6.753906 -14.453125 7.984375 -14.453125 Z M 8.28125 -2.75 C 9.226562 -2.75 10.003906 -3 10.609375 -3.5 C 11.210938 -4 11.59375 -4.6875 11.75 -5.5625 L 4.8125 -5.5625 C 4.976562 -4.6875 5.359375 -4 5.953125 -3.5 C 6.554688 -3 7.332031 -2.75 8.28125 -2.75 Z M 8.28125 -2.75 "/></g></g></g><g fill="#fcc931" fill-opacity="1"><g transform="translate(198.903732, 182.310281)"><g><path d="M 6.40625 0.28125 C 5.25 0.28125 4.128906 0.140625 3.046875 -0.140625 C 1.972656 -0.421875 1.097656 -0.800781 0.421875 -1.28125 L 1.734375 -4.234375 C 2.367188 -3.816406 3.101562 -3.476562 3.9375 -3.21875 C 4.78125 -2.957031 5.609375 -2.828125 6.421875 -2.828125 C 7.960938 -2.828125 8.734375 -3.210938 8.734375 -3.984375 C 8.734375 -4.390625 8.507812 -4.691406 8.0625 -4.890625 C 7.625 -5.085938 6.921875 -5.296875 5.953125 -5.515625 C 4.890625 -5.742188 4 -5.988281 3.28125 -6.25 C 2.5625 -6.507812 1.945312 -6.929688 1.4375 -7.515625 C 0.925781 -8.097656 0.671875 -8.878906 0.671875 -9.859375 C 0.671875 -10.722656 0.90625 -11.503906 1.375 -12.203125 C 1.84375 -12.898438 2.546875 -13.445312 3.484375 -13.84375 C 4.429688 -14.25 5.585938 -14.453125 6.953125 -14.453125 C 7.878906 -14.453125 8.796875 -14.347656 9.703125 -14.140625 C 10.609375 -13.929688 11.40625 -13.625 12.09375 -13.21875 L 10.859375 -10.25 C 9.503906 -10.976562 8.191406 -11.34375 6.921875 -11.34375 C 6.128906 -11.34375 5.550781 -11.222656 5.1875 -10.984375 C 4.820312 -10.742188 4.640625 -10.4375 4.640625 -10.0625 C 4.640625 -9.6875 4.851562 -9.40625 5.28125 -9.21875 C 5.71875 -9.03125 6.414062 -8.832031 7.375 -8.625 C 8.445312 -8.394531 9.335938 -8.148438 10.046875 -7.890625 C 10.765625 -7.628906 11.378906 -7.207031 11.890625 -6.625 C 12.410156 -6.050781 12.671875 -5.273438 12.671875 -4.296875 C 12.671875 -3.441406 12.4375 -2.671875 11.96875 -1.984375 C 11.5 -1.296875 10.789062 -0.742188 9.84375 -0.328125 C 8.894531 0.078125 7.75 0.28125 6.40625 0.28125 Z M 5.875 4.78125 C 5.539062 4.78125 5.191406 4.738281 4.828125 4.65625 C 4.472656 4.570312 4.179688 4.472656 3.953125 4.359375 L 4.484375 2.828125 C 4.890625 3.023438 5.304688 3.125 5.734375 3.125 C 6.410156 3.125 6.75 2.929688 6.75 2.546875 C 6.75 2.210938 6.445312 2.046875 5.84375 2.046875 L 5.09375 2.046875 L 5.609375 -0.1875 L 7.625 -0.1875 L 7.34375 1.03125 C 7.9375 1.101562 8.375 1.289062 8.65625 1.59375 C 8.9375 1.894531 9.078125 2.253906 9.078125 2.671875 C 9.078125 3.316406 8.785156 3.828125 8.203125 4.203125 C 7.628906 4.585938 6.851562 4.78125 5.875 4.78125 Z M 5.875 4.78125 "/></g></g></g><g fill="#fcc931" fill-opacity="1"><g transform="translate(212.00651, 182.310281)"><g><path d="M 7.984375 -14.453125 C 9.503906 -14.453125 10.859375 -14.140625 12.046875 -13.515625 C 13.242188 -12.890625 14.175781 -12.015625 14.84375 -10.890625 C 15.519531 -9.773438 15.859375 -8.507812 15.859375 -7.09375 C 15.859375 -5.675781 15.53125 -4.40625 14.875 -3.28125 C 14.21875 -2.15625 13.316406 -1.28125 12.171875 -0.65625 C 11.023438 -0.03125 9.726562 0.28125 8.28125 0.28125 C 6.8125 0.28125 5.5 -0.03125 4.34375 -0.65625 C 3.1875 -1.28125 2.285156 -2.164062 1.640625 -3.3125 C 1.003906 -4.46875 0.6875 -5.78125 0.6875 -7.25 L 0.6875 -7.984375 L 11.765625 -7.984375 C 11.617188 -8.921875 11.191406 -9.679688 10.484375 -10.265625 C 9.785156 -10.847656 8.9375 -11.140625 7.9375 -11.140625 C 7.257812 -11.140625 6.5625 -10.988281 5.84375 -10.6875 C 5.125 -10.394531 4.53125 -9.992188 4.0625 -9.484375 L 1.703125 -11.984375 C 2.390625 -12.710938 3.300781 -13.304688 4.4375 -13.765625 C 5.570312 -14.222656 6.753906 -14.453125 7.984375 -14.453125 Z M 8.28125 -2.75 C 9.226562 -2.75 10.003906 -3 10.609375 -3.5 C 11.210938 -4 11.59375 -4.6875 11.75 -5.5625 L 4.8125 -5.5625 C 4.976562 -4.6875 5.359375 -4 5.953125 -3.5 C 6.554688 -3 7.332031 -2.75 8.28125 -2.75 Z M 8.28125 -2.75 "/></g></g></g><g fill="#fcc931" fill-opacity="1"><g transform="translate(228.572311, 182.310281)"><g><path d="M 6.890625 -5.140625 L 5.390625 -3.546875 L 5.390625 0 L 1.421875 0 L 1.421875 -14.171875 L 5.390625 -14.171875 L 5.390625 -8.28125 L 10.875 -14.171875 L 15.28125 -14.171875 L 9.5 -7.890625 L 15.59375 0 L 10.9375 0 Z M 6.890625 -5.140625 "/></g></g></g><g fill="#fcc931" fill-opacity="1"><g transform="translate(243.801511, 182.310281)"><g><path d="M 6.890625 -5.140625 L 5.390625 -3.546875 L 5.390625 0 L 1.421875 0 L 1.421875 -14.171875 L 5.390625 -14.171875 L 5.390625 -8.28125 L 10.875 -14.171875 L 15.28125 -14.171875 L 9.5 -7.890625 L 15.59375 0 L 10.9375 0 Z M 6.890625 -5.140625 "/></g></g></g><g fill="#fcc931" fill-opacity="1"><g transform="translate(259.030711, 182.310281)"><g><path d="M 7.953125 0.28125 C 5.847656 0.28125 4.210938 -0.289062 3.046875 -1.4375 C 1.878906 -2.582031 1.296875 -4.207031 1.296875 -6.3125 L 1.296875 -14.171875 L 5.3125 -14.171875 L 5.3125 -6.4375 C 5.3125 -4.164062 6.207031 -3.03125 8 -3.03125 C 9.78125 -3.03125 10.671875 -4.164062 10.671875 -6.4375 L 10.671875 -14.171875 L 14.625 -14.171875 L 14.625 -6.3125 C 14.625 -4.207031 14.039062 -2.582031 12.875 -1.4375 C 11.707031 -0.289062 10.066406 0.28125 7.953125 0.28125 Z M 5.859375 -15.3125 C 5.398438 -15.3125 5.015625 -15.457031 4.703125 -15.75 C 4.398438 -16.039062 4.25 -16.421875 4.25 -16.890625 C 4.25 -17.359375 4.398438 -17.738281 4.703125 -18.03125 C 5.015625 -18.332031 5.398438 -18.484375 5.859375 -18.484375 C 6.316406 -18.484375 6.695312 -18.332031 7 -18.03125 C 7.300781 -17.738281 7.453125 -17.359375 7.453125 -16.890625 C 7.453125 -16.421875 7.300781 -16.039062 7 -15.75 C 6.695312 -15.457031 6.316406 -15.3125 5.859375 -15.3125 Z M 10.15625 -15.3125 C 9.695312 -15.3125 9.3125 -15.457031 9 -15.75 C 8.695312 -16.039062 8.546875 -16.421875 8.546875 -16.890625 C 8.546875 -17.359375 8.695312 -17.738281 9 -18.03125 C 9.3125 -18.332031 9.695312 -18.484375 10.15625 -18.484375 C 10.613281 -18.484375 10.992188 -18.332031 11.296875 -18.03125 C 11.597656 -17.738281 11.75 -17.359375 11.75 -16.890625 C 11.75 -16.421875 11.597656 -16.039062 11.296875 -15.75 C 10.992188 -15.457031 10.613281 -15.3125 10.15625 -15.3125 Z M 10.15625 -15.3125 "/></g></g></g><g fill="#fcc931" fill-opacity="1"><g transform="translate(274.948462, 182.310281)"><g><path d="M 7.609375 -3.765625 L 5.421875 -3.765625 L 5.421875 0 L 1.421875 0 L 1.421875 -14.171875 L 7.890625 -14.171875 C 9.179688 -14.171875 10.296875 -13.957031 11.234375 -13.53125 C 12.179688 -13.113281 12.910156 -12.507812 13.421875 -11.71875 C 13.929688 -10.925781 14.1875 -10 14.1875 -8.9375 C 14.1875 -7.90625 13.945312 -7.007812 13.46875 -6.25 C 12.988281 -5.488281 12.304688 -4.890625 11.421875 -4.453125 L 14.484375 0 L 10.1875 0 Z M 10.140625 -8.9375 C 10.140625 -9.59375 9.929688 -10.101562 9.515625 -10.46875 C 9.097656 -10.832031 8.476562 -11.015625 7.65625 -11.015625 L 5.421875 -11.015625 L 5.421875 -6.859375 L 7.65625 -6.859375 C 8.476562 -6.859375 9.097656 -7.035156 9.515625 -7.390625 C 9.929688 -7.753906 10.140625 -8.269531 10.140625 -8.9375 Z M 10.140625 -8.9375 "/></g></g></g><g fill="#c8d9ee" fill-opacity="1"><g transform="translate(289.929394, 182.310281)"><g/></g></g><g fill="#c8d9ee" fill-opacity="1"><g transform="translate(295.822602, 182.310281)"><g><path d="M 8.140625 -11.15625 C 9.140625 -11.15625 10.046875 -10.925781 10.859375 -10.46875 C 11.679688 -10.007812 12.332031 -9.347656 12.8125 -8.484375 C 13.289062 -7.628906 13.53125 -6.640625 13.53125 -5.515625 C 13.53125 -4.378906 13.289062 -3.378906 12.8125 -2.515625 C 12.332031 -1.648438 11.679688 -0.984375 10.859375 -0.515625 C 10.046875 -0.046875 9.140625 0.1875 8.140625 0.1875 C 6.691406 0.1875 5.613281 -0.238281 4.90625 -1.09375 L 4.90625 0 L 1.234375 0 L 1.234375 -15.03125 L 5.078125 -15.03125 L 5.078125 -10.03125 C 5.828125 -10.78125 6.847656 -11.15625 8.140625 -11.15625 Z M 7.328125 -2.875 C 8.003906 -2.875 8.554688 -3.101562 8.984375 -3.5625 C 9.421875 -4.03125 9.640625 -4.679688 9.640625 -5.515625 C 9.640625 -6.316406 9.421875 -6.945312 8.984375 -7.40625 C 8.554688 -7.863281 8.003906 -8.09375 7.328125 -8.09375 C 6.648438 -8.09375 6.09375 -7.863281 5.65625 -7.40625 C 5.226562 -6.945312 5.015625 -6.316406 5.015625 -5.515625 C 5.015625 -4.679688 5.226562 -4.03125 5.65625 -3.5625 C 6.09375 -3.101562 6.648438 -2.875 7.328125 -2.875 Z M 7.328125 -2.875 "/></g></g></g><g fill="#c8d9ee" fill-opacity="1"><g transform="translate(309.897461, 182.310281)"><g><path d="M 1.234375 -10.96875 L 5.078125 -10.96875 L 5.078125 0 L 1.234375 0 Z M 3.15625 -12.1875 C 2.457031 -12.1875 1.890625 -12.378906 1.453125 -12.765625 C 1.023438 -13.160156 0.8125 -13.648438 0.8125 -14.234375 C 0.8125 -14.816406 1.023438 -15.300781 1.453125 -15.6875 C 1.890625 -16.082031 2.457031 -16.28125 3.15625 -16.28125 C 3.863281 -16.28125 4.429688 -16.09375 4.859375 -15.71875 C 5.296875 -15.351562 5.515625 -14.878906 5.515625 -14.296875 C 5.515625 -13.691406 5.296875 -13.1875 4.859375 -12.78125 C 4.429688 -12.382812 3.863281 -12.1875 3.15625 -12.1875 Z M 3.15625 -12.1875 "/></g></g></g><g fill="#c8d9ee" fill-opacity="1"><g transform="translate(316.236209, 182.310281)"><g><path d="M 10.796875 -2.875 L 10.796875 0 L 0.671875 0 L 0.671875 -2.265625 L 5.75 -8.125 L 0.8125 -8.125 L 0.8125 -10.96875 L 10.59375 -10.96875 L 10.59375 -8.734375 L 5.515625 -2.875 Z M 10.796875 -2.875 "/></g></g></g><g fill="#c8d9ee" fill-opacity="1"><g transform="translate(327.496094, 182.310281)"><g><path d="M 12.90625 -15.03125 L 12.90625 0 L 9.234375 0 L 9.234375 -1.09375 C 8.515625 -0.238281 7.441406 0.1875 6.015625 0.1875 C 5.015625 0.1875 4.101562 -0.046875 3.28125 -0.515625 C 2.457031 -0.984375 1.804688 -1.648438 1.328125 -2.515625 C 0.847656 -3.378906 0.609375 -4.378906 0.609375 -5.515625 C 0.609375 -6.640625 0.847656 -7.628906 1.328125 -8.484375 C 1.804688 -9.347656 2.457031 -10.007812 3.28125 -10.46875 C 4.101562 -10.925781 5.015625 -11.15625 6.015625 -11.15625 C 7.328125 -11.15625 8.335938 -10.78125 9.046875 -10.03125 L 9.046875 -15.03125 Z M 6.828125 -2.875 C 7.484375 -2.875 8.023438 -3.101562 8.453125 -3.5625 C 8.890625 -4.03125 9.109375 -4.679688 9.109375 -5.515625 C 9.109375 -6.316406 8.894531 -6.945312 8.46875 -7.40625 C 8.050781 -7.863281 7.503906 -8.09375 6.828125 -8.09375 C 6.148438 -8.09375 5.59375 -7.863281 5.15625 -7.40625 C 4.726562 -6.945312 4.515625 -6.316406 4.515625 -5.515625 C 4.515625 -4.679688 4.726562 -4.03125 5.15625 -3.5625 C 5.59375 -3.101562 6.148438 -2.875 6.828125 -2.875 Z M 6.828125 -2.875 "/></g></g></g><g fill="#c8d9ee" fill-opacity="1"><g transform="translate(341.631702, 182.310281)"><g><path d="M 0.546875 -5.53125 C 0.546875 -5.5625 0.566406 -5.878906 0.609375 -6.484375 L 8.578125 -6.484375 C 8.421875 -7.046875 8.109375 -7.476562 7.640625 -7.78125 C 7.171875 -8.09375 6.585938 -8.25 5.890625 -8.25 C 5.367188 -8.25 4.914062 -8.171875 4.53125 -8.015625 C 4.144531 -7.867188 3.753906 -7.628906 3.359375 -7.296875 L 1.34375 -9.40625 C 2.40625 -10.59375 3.960938 -11.1875 6.015625 -11.1875 C 7.296875 -11.1875 8.421875 -10.941406 9.390625 -10.453125 C 10.367188 -9.960938 11.125 -9.285156 11.65625 -8.421875 C 12.1875 -7.554688 12.453125 -6.578125 12.453125 -5.484375 C 12.453125 -4.410156 12.191406 -3.441406 11.671875 -2.578125 C 11.148438 -1.722656 10.429688 -1.050781 9.515625 -0.5625 C 8.597656 -0.0820312 7.566406 0.15625 6.421875 0.15625 C 5.328125 0.15625 4.332031 -0.0664062 3.4375 -0.515625 C 2.550781 -0.972656 1.847656 -1.628906 1.328125 -2.484375 C 0.804688 -3.335938 0.546875 -4.351562 0.546875 -5.53125 Z M 6.40625 -2.578125 C 7 -2.578125 7.492188 -2.742188 7.890625 -3.078125 C 8.285156 -3.421875 8.535156 -3.878906 8.640625 -4.453125 L 4.15625 -4.453125 C 4.257812 -3.878906 4.507812 -3.421875 4.90625 -3.078125 C 5.300781 -2.742188 5.800781 -2.578125 6.40625 -2.578125 Z M 6.40625 -2.578125 "/></g></g></g><g fill="#c8d9ee" fill-opacity="1"><g transform="translate(354.633219, 182.310281)"><g><path d="M 8.390625 -11.15625 C 9.742188 -11.15625 10.835938 -10.75 11.671875 -9.9375 C 12.503906 -9.132812 12.921875 -7.914062 12.921875 -6.28125 L 12.921875 0 L 9.078125 0 L 9.078125 -5.65625 C 9.078125 -7.144531 8.472656 -7.890625 7.265625 -7.890625 C 6.609375 -7.890625 6.078125 -7.671875 5.671875 -7.234375 C 5.273438 -6.804688 5.078125 -6.164062 5.078125 -5.3125 L 5.078125 0 L 1.234375 0 L 1.234375 -10.96875 L 4.90625 -10.96875 L 4.90625 -9.78125 C 5.332031 -10.226562 5.84375 -10.566406 6.4375 -10.796875 C 7.03125 -11.035156 7.679688 -11.15625 8.390625 -11.15625 Z M 8.390625 -11.15625 "/></g></g></g></svg>