<svg xmlns="http://www.w3.org/2000/svg" xmlns:xlink="http://www.w3.org/1999/xlink" width="100" zoomAndPan="magnify" viewBox="0 0 75 30.000001" height="40" preserveAspectRatio="xMidYMid meet" version="1.0"><defs><g/><clipPath id="id1"><path d="M 1.210938 17 L 5 17 L 5 22 L 1.210938 22 Z M 1.210938 17 " clip-rule="nonzero"/></clipPath><clipPath id="id2"><path d="M 70 19 L 73.789062 19 L 73.789062 22 L 70 22 Z M 70 19 " clip-rule="nonzero"/></clipPath></defs><g fill="#fcc931" fill-opacity="1"><g transform="translate(12.218001, 15.604899)"><g><path d="M 2.96875 0.125 C 2.4375 0.125 1.921875 0.0625 1.421875 -0.0625 C 0.921875 -0.195312 0.515625 -0.375 0.203125 -0.59375 L 0.8125 -1.953125 C 1.101562 -1.765625 1.441406 -1.609375 1.828125 -1.484375 C 2.210938 -1.367188 2.59375 -1.3125 2.96875 -1.3125 C 3.6875 -1.3125 4.046875 -1.488281 4.046875 -1.84375 C 4.046875 -2.03125 3.941406 -2.171875 3.734375 -2.265625 C 3.535156 -2.359375 3.207031 -2.453125 2.75 -2.546875 C 2.257812 -2.648438 1.847656 -2.765625 1.515625 -2.890625 C 1.179688 -3.015625 0.894531 -3.207031 0.65625 -3.46875 C 0.425781 -3.738281 0.3125 -4.101562 0.3125 -4.5625 C 0.3125 -4.96875 0.421875 -5.328125 0.640625 -5.640625 C 0.859375 -5.960938 1.179688 -6.21875 1.609375 -6.40625 C 2.046875 -6.59375 2.582031 -6.6875 3.21875 -6.6875 C 3.644531 -6.6875 4.066406 -6.640625 4.484375 -6.546875 C 4.910156 -6.453125 5.28125 -6.3125 5.59375 -6.125 L 5.03125 -4.75 C 4.40625 -5.082031 3.796875 -5.25 3.203125 -5.25 C 2.835938 -5.25 2.566406 -5.191406 2.390625 -5.078125 C 2.222656 -4.972656 2.140625 -4.832031 2.140625 -4.65625 C 2.140625 -4.476562 2.238281 -4.347656 2.4375 -4.265625 C 2.644531 -4.179688 2.96875 -4.09375 3.40625 -4 C 3.90625 -3.882812 4.316406 -3.765625 4.640625 -3.640625 C 4.972656 -3.523438 5.257812 -3.332031 5.5 -3.0625 C 5.75 -2.800781 5.875 -2.441406 5.875 -1.984375 C 5.875 -1.585938 5.765625 -1.226562 5.546875 -0.90625 C 5.328125 -0.59375 5 -0.34375 4.5625 -0.15625 C 4.125 0.03125 3.59375 0.125 2.96875 0.125 Z M 2.96875 0.125 "/></g></g></g><g fill="#fcc931" fill-opacity="1"><g transform="translate(18.286253, 15.604899)"><g><path d="M 0.234375 -2.46875 C 0.234375 -2.476562 0.242188 -2.625 0.265625 -2.90625 L 3.953125 -2.90625 C 3.878906 -3.164062 3.734375 -3.363281 3.515625 -3.5 C 3.304688 -3.644531 3.035156 -3.71875 2.703125 -3.71875 C 2.460938 -3.71875 2.253906 -3.679688 2.078125 -3.609375 C 1.898438 -3.546875 1.71875 -3.4375 1.53125 -3.28125 L 0.59375 -4.265625 C 1.09375 -4.804688 1.816406 -5.078125 2.765625 -5.078125 C 3.359375 -5.078125 3.878906 -4.960938 4.328125 -4.734375 C 4.773438 -4.515625 5.125 -4.203125 5.375 -3.796875 C 5.625 -3.398438 5.75 -2.953125 5.75 -2.453125 C 5.75 -1.953125 5.628906 -1.503906 5.390625 -1.109375 C 5.148438 -0.710938 4.816406 -0.398438 4.390625 -0.171875 C 3.960938 0.0546875 3.484375 0.171875 2.953125 0.171875 C 2.441406 0.171875 1.976562 0.0664062 1.5625 -0.140625 C 1.15625 -0.359375 0.832031 -0.664062 0.59375 -1.0625 C 0.351562 -1.457031 0.234375 -1.925781 0.234375 -2.46875 Z M 2.9375 -1.09375 C 3.21875 -1.09375 3.445312 -1.171875 3.625 -1.328125 C 3.8125 -1.484375 3.929688 -1.695312 3.984375 -1.96875 L 1.90625 -1.96875 C 1.957031 -1.695312 2.070312 -1.484375 2.25 -1.328125 C 2.4375 -1.171875 2.664062 -1.09375 2.9375 -1.09375 Z M 2.9375 -1.09375 "/></g></g></g><g fill="#fcc931" fill-opacity="1"><g transform="translate(24.30761, 15.604899)"><g><path d="M 2.265625 -4.46875 C 2.453125 -4.695312 2.6875 -4.867188 2.96875 -4.984375 C 3.257812 -5.109375 3.59375 -5.171875 3.96875 -5.171875 L 3.96875 -3.5625 C 3.8125 -3.582031 3.679688 -3.59375 3.578125 -3.59375 C 3.191406 -3.59375 2.890625 -3.488281 2.671875 -3.28125 C 2.460938 -3.070312 2.359375 -2.753906 2.359375 -2.328125 L 2.359375 0 L 0.578125 0 L 0.578125 -5.078125 L 2.265625 -5.078125 Z M 2.265625 -4.46875 "/></g></g></g><g fill="#fcc931" fill-opacity="1"><g transform="translate(28.462534, 15.604899)"><g><path d="M 2.515625 -4.890625 L 3.71875 -4.890625 L 3.71875 -3.5625 L 2.5625 -3.5625 L 2.5625 0 L 0.78125 0 L 0.78125 -3.5625 L 0.03125 -3.5625 L 0.03125 -4.890625 L 0.78125 -4.890625 L 0.78125 -5.03125 C 0.78125 -5.644531 0.960938 -6.132812 1.328125 -6.5 C 1.703125 -6.863281 2.222656 -7.046875 2.890625 -7.046875 C 3.117188 -7.046875 3.335938 -7.019531 3.546875 -6.96875 C 3.765625 -6.925781 3.941406 -6.863281 4.078125 -6.78125 L 3.640625 -5.515625 C 3.460938 -5.617188 3.285156 -5.671875 3.109375 -5.671875 C 2.921875 -5.671875 2.773438 -5.613281 2.671875 -5.5 C 2.566406 -5.382812 2.515625 -5.21875 2.515625 -5 Z M 2.515625 -4.890625 "/></g></g></g><g fill="#fcc931" fill-opacity="1"><g transform="translate(32.270433, 15.604899)"><g><path d="M 0.234375 -2.46875 C 0.234375 -2.476562 0.242188 -2.625 0.265625 -2.90625 L 3.953125 -2.90625 C 3.878906 -3.164062 3.734375 -3.363281 3.515625 -3.5 C 3.304688 -3.644531 3.035156 -3.71875 2.703125 -3.71875 C 2.460938 -3.71875 2.253906 -3.679688 2.078125 -3.609375 C 1.898438 -3.546875 1.71875 -3.4375 1.53125 -3.28125 L 0.59375 -4.265625 C 1.09375 -4.804688 1.816406 -5.078125 2.765625 -5.078125 C 3.359375 -5.078125 3.878906 -4.960938 4.328125 -4.734375 C 4.773438 -4.515625 5.125 -4.203125 5.375 -3.796875 C 5.625 -3.398438 5.75 -2.953125 5.75 -2.453125 C 5.75 -1.953125 5.628906 -1.503906 5.390625 -1.109375 C 5.148438 -0.710938 4.816406 -0.398438 4.390625 -0.171875 C 3.960938 0.0546875 3.484375 0.171875 2.953125 0.171875 C 2.441406 0.171875 1.976562 0.0664062 1.5625 -0.140625 C 1.15625 -0.359375 0.832031 -0.664062 0.59375 -1.0625 C 0.351562 -1.457031 0.234375 -1.925781 0.234375 -2.46875 Z M 2.9375 -1.09375 C 3.21875 -1.09375 3.445312 -1.171875 3.625 -1.328125 C 3.8125 -1.484375 3.929688 -1.695312 3.984375 -1.96875 L 1.90625 -1.96875 C 1.957031 -1.695312 2.070312 -1.484375 2.25 -1.328125 C 2.4375 -1.171875 2.664062 -1.09375 2.9375 -1.09375 Z M 2.9375 -1.09375 "/></g></g></g><g fill="#fcc931" fill-opacity="1"><g transform="translate(38.291789, 15.604899)"><g><path d="M 0.578125 -6.953125 L 2.359375 -6.953125 L 2.359375 0 L 0.578125 0 Z M 0.578125 -6.953125 "/></g></g></g><g fill="#fcc931" fill-opacity="1"><g transform="translate(41.227435, 15.604899)"><g><path d="M 0.578125 -5.078125 L 2.359375 -5.078125 L 2.359375 0 L 0.578125 0 Z M 1.46875 -5.640625 C 1.144531 -5.640625 0.878906 -5.726562 0.671875 -5.90625 C 0.472656 -6.09375 0.375 -6.320312 0.375 -6.59375 C 0.375 -6.863281 0.472656 -7.085938 0.671875 -7.265625 C 0.878906 -7.441406 1.144531 -7.53125 1.46875 -7.53125 C 1.789062 -7.53125 2.050781 -7.441406 2.25 -7.265625 C 2.457031 -7.097656 2.5625 -6.882812 2.5625 -6.625 C 2.5625 -6.34375 2.457031 -6.109375 2.25 -5.921875 C 2.050781 -5.734375 1.789062 -5.640625 1.46875 -5.640625 Z M 1.46875 -5.640625 "/></g></g></g><g fill="#ffffff" fill-opacity="1"><g transform="translate(44.161379, 15.604899)"><g><path d="M 3.65625 -6.5625 C 4.25 -6.5625 4.765625 -6.460938 5.203125 -6.265625 C 5.640625 -6.066406 5.976562 -5.785156 6.21875 -5.421875 C 6.457031 -5.054688 6.578125 -4.628906 6.578125 -4.140625 C 6.578125 -3.640625 6.457031 -3.207031 6.21875 -2.84375 C 5.976562 -2.488281 5.640625 -2.210938 5.203125 -2.015625 C 4.765625 -1.816406 4.25 -1.71875 3.65625 -1.71875 L 2.515625 -1.71875 L 2.515625 0 L 0.65625 0 L 0.65625 -6.5625 Z M 3.546875 -3.171875 C 3.921875 -3.171875 4.207031 -3.253906 4.40625 -3.421875 C 4.601562 -3.585938 4.703125 -3.828125 4.703125 -4.140625 C 4.703125 -4.441406 4.601562 -4.675781 4.40625 -4.84375 C 4.207031 -5.007812 3.921875 -5.09375 3.546875 -5.09375 L 2.515625 -5.09375 L 2.515625 -3.171875 Z M 3.546875 -3.171875 "/></g></g></g><g fill="#ffffff" fill-opacity="1"><g transform="translate(51.073746, 15.604899)"><g><path d="M 2.734375 -5.171875 C 3.578125 -5.171875 4.21875 -4.976562 4.65625 -4.59375 C 5.101562 -4.207031 5.328125 -3.617188 5.328125 -2.828125 L 5.328125 0 L 3.671875 0 L 3.671875 -0.65625 C 3.421875 -0.164062 2.921875 0.078125 2.171875 0.078125 C 1.773438 0.078125 1.429688 0.0078125 1.140625 -0.125 C 0.859375 -0.257812 0.644531 -0.441406 0.5 -0.671875 C 0.351562 -0.910156 0.28125 -1.179688 0.28125 -1.484375 C 0.28125 -1.960938 0.460938 -2.332031 0.828125 -2.59375 C 1.203125 -2.863281 1.773438 -3 2.546875 -3 L 3.546875 -3 C 3.515625 -3.539062 3.15625 -3.8125 2.46875 -3.8125 C 2.226562 -3.8125 1.984375 -3.769531 1.734375 -3.6875 C 1.484375 -3.613281 1.269531 -3.503906 1.09375 -3.359375 L 0.5 -4.578125 C 0.78125 -4.765625 1.117188 -4.910156 1.515625 -5.015625 C 1.921875 -5.117188 2.328125 -5.171875 2.734375 -5.171875 Z M 2.671875 -1.046875 C 2.878906 -1.046875 3.0625 -1.09375 3.21875 -1.1875 C 3.375 -1.289062 3.484375 -1.4375 3.546875 -1.625 L 3.546875 -2.078125 L 2.78125 -2.078125 C 2.257812 -2.078125 2 -1.90625 2 -1.5625 C 2 -1.40625 2.054688 -1.28125 2.171875 -1.1875 C 2.296875 -1.09375 2.460938 -1.046875 2.671875 -1.046875 Z M 2.671875 -1.046875 "/></g></g></g><g fill="#ffffff" fill-opacity="1"><g transform="translate(56.963796, 15.604899)"><g><path d="M 5.921875 -5.078125 L 3.734375 0.203125 C 3.472656 0.828125 3.15625 1.265625 2.78125 1.515625 C 2.414062 1.773438 1.96875 1.90625 1.4375 1.90625 C 1.175781 1.90625 0.90625 1.863281 0.625 1.78125 C 0.351562 1.695312 0.132812 1.582031 -0.03125 1.4375 L 0.59375 0.203125 C 0.6875 0.296875 0.800781 0.367188 0.9375 0.421875 C 1.082031 0.472656 1.226562 0.5 1.375 0.5 C 1.539062 0.5 1.675781 0.460938 1.78125 0.390625 C 1.894531 0.328125 1.992188 0.21875 2.078125 0.0625 L -0.109375 -5.078125 L 1.71875 -5.078125 L 2.96875 -1.984375 L 4.234375 -5.078125 Z M 5.921875 -5.078125 "/></g></g></g><g clip-path="url(#id1)"><g fill="#c8d9ee" fill-opacity="1"><g transform="translate(1.523751, 21.258247)"><g><path d="M 1.703125 0.0625 C 1.398438 0.0625 1.128906 0 0.890625 -0.125 C 0.660156 -0.257812 0.476562 -0.4375 0.34375 -0.65625 C 0.207031 -0.875 0.140625 -1.125 0.140625 -1.40625 C 0.140625 -1.6875 0.207031 -1.9375 0.34375 -2.15625 C 0.476562 -2.375 0.660156 -2.546875 0.890625 -2.671875 C 1.128906 -2.804688 1.398438 -2.875 1.703125 -2.875 C 1.992188 -2.875 2.257812 -2.804688 2.5 -2.671875 C 2.738281 -2.546875 2.925781 -2.375 3.0625 -2.15625 C 3.195312 -1.9375 3.265625 -1.6875 3.265625 -1.40625 C 3.265625 -1.125 3.195312 -0.875 3.0625 -0.65625 C 2.925781 -0.4375 2.738281 -0.257812 2.5 -0.125 C 2.257812 0 1.992188 0.0625 1.703125 0.0625 Z M 1.703125 -0.609375 C 1.835938 -0.609375 1.960938 -0.640625 2.078125 -0.703125 C 2.191406 -0.765625 2.28125 -0.859375 2.34375 -0.984375 C 2.414062 -1.109375 2.453125 -1.25 2.453125 -1.40625 C 2.453125 -1.5625 2.414062 -1.703125 2.34375 -1.828125 C 2.28125 -1.953125 2.191406 -2.046875 2.078125 -2.109375 C 1.960938 -2.171875 1.835938 -2.203125 1.703125 -2.203125 C 1.554688 -2.203125 1.425781 -2.171875 1.3125 -2.109375 C 1.195312 -2.046875 1.101562 -1.953125 1.03125 -1.828125 C 0.96875 -1.703125 0.9375 -1.5625 0.9375 -1.40625 C 0.9375 -1.25 0.96875 -1.109375 1.03125 -0.984375 C 1.101562 -0.859375 1.195312 -0.765625 1.3125 -0.703125 C 1.425781 -0.640625 1.554688 -0.609375 1.703125 -0.609375 Z M 1.28125 -3.03125 C 1.1875 -3.03125 1.109375 -3.054688 1.046875 -3.109375 C 0.984375 -3.171875 0.953125 -3.25 0.953125 -3.34375 C 0.953125 -3.4375 0.984375 -3.515625 1.046875 -3.578125 C 1.109375 -3.640625 1.1875 -3.671875 1.28125 -3.671875 C 1.363281 -3.671875 1.4375 -3.640625 1.5 -3.578125 C 1.5625 -3.515625 1.59375 -3.4375 1.59375 -3.34375 C 1.59375 -3.25 1.5625 -3.171875 1.5 -3.109375 C 1.4375 -3.054688 1.363281 -3.03125 1.28125 -3.03125 Z M 2.125 -3.03125 C 2.03125 -3.03125 1.953125 -3.054688 1.890625 -3.109375 C 1.835938 -3.171875 1.8125 -3.25 1.8125 -3.34375 C 1.8125 -3.4375 1.835938 -3.515625 1.890625 -3.578125 C 1.953125 -3.640625 2.03125 -3.671875 2.125 -3.671875 C 2.21875 -3.671875 2.289062 -3.640625 2.34375 -3.578125 C 2.40625 -3.515625 2.4375 -3.4375 2.4375 -3.34375 C 2.4375 -3.25 2.40625 -3.171875 2.34375 -3.109375 C 2.289062 -3.054688 2.21875 -3.03125 2.125 -3.03125 Z M 2.125 -3.03125 "/></g></g></g></g><g fill="#c8d9ee" fill-opacity="1"><g transform="translate(4.924812, 21.258247)"><g><path d="M 2.5625 -2.984375 L 2.5625 0 L 1.828125 0 L 1.828125 -0.21875 C 1.691406 -0.0507812 1.476562 0.03125 1.1875 0.03125 C 0.988281 0.03125 0.804688 -0.0078125 0.640625 -0.09375 C 0.484375 -0.1875 0.359375 -0.316406 0.265625 -0.484375 C 0.171875 -0.660156 0.125 -0.863281 0.125 -1.09375 C 0.125 -1.3125 0.171875 -1.503906 0.265625 -1.671875 C 0.359375 -1.847656 0.484375 -1.984375 0.640625 -2.078125 C 0.804688 -2.171875 0.988281 -2.21875 1.1875 -2.21875 C 1.445312 -2.21875 1.648438 -2.140625 1.796875 -1.984375 L 1.796875 -2.984375 Z M 1.359375 -0.5625 C 1.484375 -0.5625 1.585938 -0.609375 1.671875 -0.703125 C 1.765625 -0.796875 1.8125 -0.925781 1.8125 -1.09375 C 1.8125 -1.25 1.765625 -1.375 1.671875 -1.46875 C 1.585938 -1.5625 1.484375 -1.609375 1.359375 -1.609375 C 1.222656 -1.609375 1.109375 -1.5625 1.015625 -1.46875 C 0.929688 -1.375 0.890625 -1.25 0.890625 -1.09375 C 0.890625 -0.925781 0.929688 -0.796875 1.015625 -0.703125 C 1.109375 -0.609375 1.222656 -0.5625 1.359375 -0.5625 Z M 1.359375 -0.5625 "/></g></g></g><g fill="#c8d9ee" fill-opacity="1"><g transform="translate(7.730888, 21.258247)"><g><path d="M 0.53125 -0.921875 C 0.53125 -0.921875 0.535156 -0.984375 0.546875 -1.109375 L 2.125 -1.109375 C 2.09375 -1.210938 2.03125 -1.296875 1.9375 -1.359375 C 1.84375 -1.421875 1.726562 -1.453125 1.59375 -1.453125 C 1.488281 -1.453125 1.394531 -1.4375 1.3125 -1.40625 C 1.238281 -1.375 1.164062 -1.328125 1.09375 -1.265625 L 0.6875 -1.6875 C 0.894531 -1.914062 1.203125 -2.03125 1.609375 -2.03125 C 1.867188 -2.03125 2.09375 -1.984375 2.28125 -1.890625 C 2.476562 -1.796875 2.628906 -1.660156 2.734375 -1.484375 C 2.835938 -1.316406 2.890625 -1.125 2.890625 -0.90625 C 2.890625 -0.695312 2.835938 -0.503906 2.734375 -0.328125 C 2.628906 -0.160156 2.484375 -0.03125 2.296875 0.0625 C 2.117188 0.164062 1.914062 0.21875 1.6875 0.21875 C 1.476562 0.21875 1.285156 0.171875 1.109375 0.078125 C 0.929688 -0.015625 0.789062 -0.144531 0.6875 -0.3125 C 0.582031 -0.476562 0.53125 -0.679688 0.53125 -0.921875 Z M 1.6875 -0.328125 C 1.8125 -0.328125 1.910156 -0.359375 1.984375 -0.421875 C 2.066406 -0.492188 2.117188 -0.585938 2.140625 -0.703125 L 1.25 -0.703125 C 1.269531 -0.585938 1.316406 -0.492188 1.390625 -0.421875 C 1.472656 -0.359375 1.570312 -0.328125 1.6875 -0.328125 Z M 1.6875 -0.328125 "/></g></g></g><g fill="#c8d9ee" fill-opacity="1"><g transform="translate(10.311834, 21.258247)"><g><path d="M 1.65625 -2.21875 C 1.925781 -2.21875 2.144531 -2.132812 2.3125 -1.96875 C 2.476562 -1.8125 2.5625 -1.570312 2.5625 -1.25 L 2.5625 0 L 1.796875 0 L 1.796875 -1.125 C 1.796875 -1.414062 1.675781 -1.5625 1.4375 -1.5625 C 1.3125 -1.5625 1.207031 -1.519531 1.125 -1.4375 C 1.050781 -1.351562 1.015625 -1.222656 1.015625 -1.046875 L 1.015625 0 L 0.25 0 L 0.25 -2.171875 L 0.96875 -2.171875 L 0.96875 -1.9375 C 1.050781 -2.03125 1.148438 -2.097656 1.265625 -2.140625 C 1.390625 -2.191406 1.519531 -2.21875 1.65625 -2.21875 Z M 1.65625 -2.21875 "/></g></g></g><g fill="#c8d9ee" fill-opacity="1"><g transform="translate(13.10987, 21.258247)"><g><path d="M 0.25 -2.171875 L 1.015625 -2.171875 L 1.015625 0 L 0.25 0 Z M 0.625 -2.421875 C 0.488281 -2.421875 0.375 -2.457031 0.28125 -2.53125 C 0.195312 -2.613281 0.15625 -2.710938 0.15625 -2.828125 C 0.15625 -2.941406 0.195312 -3.035156 0.28125 -3.109375 C 0.375 -3.191406 0.488281 -3.234375 0.625 -3.234375 C 0.757812 -3.234375 0.867188 -3.191406 0.953125 -3.109375 C 1.046875 -3.035156 1.09375 -2.941406 1.09375 -2.828125 C 1.09375 -2.710938 1.046875 -2.613281 0.953125 -2.53125 C 0.867188 -2.457031 0.757812 -2.421875 0.625 -2.421875 Z M 0.625 -2.421875 "/></g></g></g><g fill="#c8d9ee" fill-opacity="1"><g transform="translate(14.368183, 21.258247)"><g><path d="M 1.03125 0.03125 C 0.851562 0.03125 0.675781 0.0078125 0.5 -0.03125 C 0.320312 -0.0703125 0.179688 -0.125 0.078125 -0.1875 L 0.296875 -0.703125 C 0.398438 -0.648438 0.519531 -0.601562 0.65625 -0.5625 C 0.789062 -0.53125 0.925781 -0.515625 1.0625 -0.515625 C 1.1875 -0.515625 1.273438 -0.523438 1.328125 -0.546875 C 1.378906 -0.578125 1.40625 -0.613281 1.40625 -0.65625 C 1.40625 -0.707031 1.375 -0.742188 1.3125 -0.765625 C 1.25 -0.785156 1.148438 -0.800781 1.015625 -0.8125 C 0.835938 -0.832031 0.6875 -0.859375 0.5625 -0.890625 C 0.4375 -0.929688 0.328125 -1 0.234375 -1.09375 C 0.148438 -1.1875 0.109375 -1.316406 0.109375 -1.484375 C 0.109375 -1.628906 0.148438 -1.753906 0.234375 -1.859375 C 0.316406 -1.972656 0.4375 -2.0625 0.59375 -2.125 C 0.757812 -2.1875 0.953125 -2.21875 1.171875 -2.21875 C 1.328125 -2.21875 1.484375 -2.195312 1.640625 -2.15625 C 1.796875 -2.125 1.925781 -2.082031 2.03125 -2.03125 L 1.8125 -1.515625 C 1.613281 -1.617188 1.40625 -1.671875 1.1875 -1.671875 C 1.0625 -1.671875 0.96875 -1.65625 0.90625 -1.625 C 0.851562 -1.601562 0.828125 -1.566406 0.828125 -1.515625 C 0.828125 -1.460938 0.859375 -1.425781 0.921875 -1.40625 C 0.984375 -1.382812 1.085938 -1.363281 1.234375 -1.34375 C 1.410156 -1.320312 1.554688 -1.289062 1.671875 -1.25 C 1.785156 -1.21875 1.882812 -1.15625 1.96875 -1.0625 C 2.0625 -0.96875 2.109375 -0.835938 2.109375 -0.671875 C 2.109375 -0.535156 2.066406 -0.414062 1.984375 -0.3125 C 1.898438 -0.207031 1.773438 -0.125 1.609375 -0.0625 C 1.453125 0 1.257812 0.03125 1.03125 0.03125 Z M 0.921875 0.953125 C 0.859375 0.953125 0.789062 0.941406 0.71875 0.921875 C 0.644531 0.910156 0.585938 0.890625 0.546875 0.859375 L 0.65625 0.5625 C 0.726562 0.601562 0.8125 0.625 0.90625 0.625 C 1.03125 0.625 1.09375 0.582031 1.09375 0.5 C 1.09375 0.4375 1.035156 0.40625 0.921875 0.40625 L 0.765625 0.40625 L 0.875 -0.03125 L 1.265625 -0.03125 L 1.21875 0.203125 C 1.332031 0.210938 1.414062 0.25 1.46875 0.3125 C 1.53125 0.375 1.5625 0.445312 1.5625 0.53125 C 1.5625 0.65625 1.503906 0.753906 1.390625 0.828125 C 1.273438 0.910156 1.117188 0.953125 0.921875 0.953125 Z M 0.921875 0.953125 "/></g></g></g><g fill="#c8d9ee" fill-opacity="1"><g transform="translate(16.567213, 21.258247)"><g/></g></g><g fill="#c8d9ee" fill-opacity="1"><g transform="translate(17.73708, 21.258247)"><g><path d="M 1.03125 0.03125 C 0.851562 0.03125 0.675781 0.0078125 0.5 -0.03125 C 0.320312 -0.0703125 0.179688 -0.125 0.078125 -0.1875 L 0.296875 -0.703125 C 0.398438 -0.648438 0.519531 -0.601562 0.65625 -0.5625 C 0.789062 -0.53125 0.925781 -0.515625 1.0625 -0.515625 C 1.1875 -0.515625 1.273438 -0.523438 1.328125 -0.546875 C 1.378906 -0.578125 1.40625 -0.613281 1.40625 -0.65625 C 1.40625 -0.707031 1.375 -0.742188 1.3125 -0.765625 C 1.25 -0.785156 1.148438 -0.800781 1.015625 -0.8125 C 0.835938 -0.832031 0.6875 -0.859375 0.5625 -0.890625 C 0.4375 -0.929688 0.328125 -1 0.234375 -1.09375 C 0.148438 -1.1875 0.109375 -1.316406 0.109375 -1.484375 C 0.109375 -1.628906 0.148438 -1.753906 0.234375 -1.859375 C 0.316406 -1.972656 0.4375 -2.0625 0.59375 -2.125 C 0.757812 -2.1875 0.953125 -2.21875 1.171875 -2.21875 C 1.328125 -2.21875 1.484375 -2.195312 1.640625 -2.15625 C 1.796875 -2.125 1.925781 -2.082031 2.03125 -2.03125 L 1.8125 -1.515625 C 1.613281 -1.617188 1.40625 -1.671875 1.1875 -1.671875 C 1.0625 -1.671875 0.96875 -1.65625 0.90625 -1.625 C 0.851562 -1.601562 0.828125 -1.566406 0.828125 -1.515625 C 0.828125 -1.460938 0.859375 -1.425781 0.921875 -1.40625 C 0.984375 -1.382812 1.085938 -1.363281 1.234375 -1.34375 C 1.410156 -1.320312 1.554688 -1.289062 1.671875 -1.25 C 1.785156 -1.21875 1.882812 -1.15625 1.96875 -1.0625 C 2.0625 -0.96875 2.109375 -0.835938 2.109375 -0.671875 C 2.109375 -0.535156 2.066406 -0.414062 1.984375 -0.3125 C 1.898438 -0.207031 1.773438 -0.125 1.609375 -0.0625 C 1.453125 0 1.257812 0.03125 1.03125 0.03125 Z M 1.03125 0.03125 "/></g></g></g><g fill="#c8d9ee" fill-opacity="1"><g transform="translate(19.936111, 21.258247)"><g><path d="M 0.25 -2.171875 L 1.015625 -2.171875 L 1.015625 0 L 0.25 0 Z M 0.625 -2.421875 C 0.488281 -2.421875 0.375 -2.457031 0.28125 -2.53125 C 0.195312 -2.613281 0.15625 -2.710938 0.15625 -2.828125 C 0.15625 -2.941406 0.195312 -3.035156 0.28125 -3.109375 C 0.375 -3.191406 0.488281 -3.234375 0.625 -3.234375 C 0.757812 -3.234375 0.867188 -3.191406 0.953125 -3.109375 C 1.046875 -3.035156 1.09375 -2.941406 1.09375 -2.828125 C 1.09375 -2.710938 1.046875 -2.613281 0.953125 -2.53125 C 0.867188 -2.457031 0.757812 -2.421875 0.625 -2.421875 Z M 0.625 -2.421875 "/></g></g></g><g fill="#c8d9ee" fill-opacity="1"><g transform="translate(21.194423, 21.258247)"><g><path d="M 2.140625 -0.5625 L 2.140625 0 L 0.125 0 L 0.125 -0.453125 L 1.140625 -1.609375 L 0.15625 -1.609375 L 0.15625 -2.171875 L 2.09375 -2.171875 L 2.09375 -1.734375 L 1.09375 -0.5625 Z M 2.140625 -0.5625 "/></g></g></g><g fill="#c8d9ee" fill-opacity="1"><g transform="translate(23.429636, 21.258247)"><g><path d="M 2.5625 -2.984375 L 2.5625 0 L 1.828125 0 L 1.828125 -0.21875 C 1.691406 -0.0507812 1.476562 0.03125 1.1875 0.03125 C 0.988281 0.03125 0.804688 -0.0078125 0.640625 -0.09375 C 0.484375 -0.1875 0.359375 -0.316406 0.265625 -0.484375 C 0.171875 -0.660156 0.125 -0.863281 0.125 -1.09375 C 0.125 -1.3125 0.171875 -1.503906 0.265625 -1.671875 C 0.359375 -1.847656 0.484375 -1.984375 0.640625 -2.078125 C 0.804688 -2.171875 0.988281 -2.21875 1.1875 -2.21875 C 1.445312 -2.21875 1.648438 -2.140625 1.796875 -1.984375 L 1.796875 -2.984375 Z M 1.359375 -0.5625 C 1.484375 -0.5625 1.585938 -0.609375 1.671875 -0.703125 C 1.765625 -0.796875 1.8125 -0.925781 1.8125 -1.09375 C 1.8125 -1.25 1.765625 -1.375 1.671875 -1.46875 C 1.585938 -1.5625 1.484375 -1.609375 1.359375 -1.609375 C 1.222656 -1.609375 1.109375 -1.5625 1.015625 -1.46875 C 0.929688 -1.375 0.890625 -1.25 0.890625 -1.09375 C 0.890625 -0.925781 0.929688 -0.796875 1.015625 -0.703125 C 1.109375 -0.609375 1.222656 -0.5625 1.359375 -0.5625 Z M 1.359375 -0.5625 "/></g></g></g><g fill="#c8d9ee" fill-opacity="1"><g transform="translate(26.235712, 21.258247)"><g><path d="M 0.53125 -0.921875 C 0.53125 -0.921875 0.535156 -0.984375 0.546875 -1.109375 L 2.125 -1.109375 C 2.09375 -1.210938 2.03125 -1.296875 1.9375 -1.359375 C 1.84375 -1.421875 1.726562 -1.453125 1.59375 -1.453125 C 1.488281 -1.453125 1.394531 -1.4375 1.3125 -1.40625 C 1.238281 -1.375 1.164062 -1.328125 1.09375 -1.265625 L 0.6875 -1.6875 C 0.894531 -1.914062 1.203125 -2.03125 1.609375 -2.03125 C 1.867188 -2.03125 2.09375 -1.984375 2.28125 -1.890625 C 2.476562 -1.796875 2.628906 -1.660156 2.734375 -1.484375 C 2.835938 -1.316406 2.890625 -1.125 2.890625 -0.90625 C 2.890625 -0.695312 2.835938 -0.503906 2.734375 -0.328125 C 2.628906 -0.160156 2.484375 -0.03125 2.296875 0.0625 C 2.117188 0.164062 1.914062 0.21875 1.6875 0.21875 C 1.476562 0.21875 1.285156 0.171875 1.109375 0.078125 C 0.929688 -0.015625 0.789062 -0.144531 0.6875 -0.3125 C 0.582031 -0.476562 0.53125 -0.679688 0.53125 -0.921875 Z M 1.6875 -0.328125 C 1.8125 -0.328125 1.910156 -0.359375 1.984375 -0.421875 C 2.066406 -0.492188 2.117188 -0.585938 2.140625 -0.703125 L 1.25 -0.703125 C 1.269531 -0.585938 1.316406 -0.492188 1.390625 -0.421875 C 1.472656 -0.359375 1.570312 -0.328125 1.6875 -0.328125 Z M 1.6875 -0.328125 "/></g></g></g><g fill="#c8d9ee" fill-opacity="1"><g transform="translate(28.816658, 21.258247)"><g><path d="M 1.65625 -2.21875 C 1.925781 -2.21875 2.144531 -2.132812 2.3125 -1.96875 C 2.476562 -1.8125 2.5625 -1.570312 2.5625 -1.25 L 2.5625 0 L 1.796875 0 L 1.796875 -1.125 C 1.796875 -1.414062 1.675781 -1.5625 1.4375 -1.5625 C 1.3125 -1.5625 1.207031 -1.519531 1.125 -1.4375 C 1.050781 -1.351562 1.015625 -1.222656 1.015625 -1.046875 L 1.015625 0 L 0.25 0 L 0.25 -2.171875 L 0.96875 -2.171875 L 0.96875 -1.9375 C 1.050781 -2.03125 1.148438 -2.097656 1.265625 -2.140625 C 1.390625 -2.191406 1.519531 -2.21875 1.65625 -2.21875 Z M 1.65625 -2.21875 "/></g></g></g><g fill="#c8d9ee" fill-opacity="1"><g transform="translate(31.614694, 21.258247)"><g><path d="M 0.5625 -0.875 C 0.695312 -0.875 0.804688 -0.832031 0.890625 -0.75 C 0.984375 -0.664062 1.03125 -0.554688 1.03125 -0.421875 C 1.03125 -0.359375 1.019531 -0.296875 1 -0.234375 C 0.976562 -0.171875 0.941406 -0.078125 0.890625 0.046875 L 0.640625 0.625 L 0.15625 0.625 L 0.34375 -0.03125 C 0.269531 -0.0625 0.210938 -0.109375 0.171875 -0.171875 C 0.128906 -0.242188 0.109375 -0.328125 0.109375 -0.421875 C 0.109375 -0.554688 0.148438 -0.664062 0.234375 -0.75 C 0.328125 -0.832031 0.4375 -0.875 0.5625 -0.875 Z M 0.5625 -0.875 "/></g></g></g><g fill="#c8d9ee" fill-opacity="1"><g transform="translate(32.752401, 21.258247)"><g/></g></g><g fill="#fcc931" fill-opacity="1"><g transform="translate(33.920574, 21.258247)"><g><path d="M 0.875 -2.1875 L 0.015625 -2.1875 L 0.015625 -2.8125 L 2.53125 -2.8125 L 2.53125 -2.1875 L 1.671875 -2.1875 L 1.671875 0 L 0.875 0 Z M 0.875 -2.1875 "/></g></g></g><g fill="#fcc931" fill-opacity="1"><g transform="translate(36.47338, 21.258247)"><g><path d="M 1.578125 -2.875 C 1.878906 -2.875 2.148438 -2.8125 2.390625 -2.6875 C 2.628906 -2.5625 2.8125 -2.382812 2.9375 -2.15625 C 3.070312 -1.9375 3.140625 -1.6875 3.140625 -1.40625 C 3.140625 -1.125 3.070312 -0.867188 2.9375 -0.640625 C 2.8125 -0.421875 2.632812 -0.25 2.40625 -0.125 C 2.1875 0 1.929688 0.0625 1.640625 0.0625 C 1.347656 0.0625 1.085938 0 0.859375 -0.125 C 0.628906 -0.25 0.453125 -0.425781 0.328125 -0.65625 C 0.203125 -0.882812 0.140625 -1.144531 0.140625 -1.4375 L 0.140625 -1.578125 L 2.328125 -1.578125 C 2.296875 -1.765625 2.210938 -1.914062 2.078125 -2.03125 C 1.941406 -2.144531 1.773438 -2.203125 1.578125 -2.203125 C 1.441406 -2.203125 1.300781 -2.171875 1.15625 -2.109375 C 1.007812 -2.054688 0.894531 -1.976562 0.8125 -1.875 L 0.34375 -2.375 C 0.476562 -2.519531 0.65625 -2.640625 0.875 -2.734375 C 1.101562 -2.828125 1.335938 -2.875 1.578125 -2.875 Z M 1.640625 -0.546875 C 1.828125 -0.546875 1.976562 -0.59375 2.09375 -0.6875 C 2.21875 -0.789062 2.296875 -0.929688 2.328125 -1.109375 L 0.953125 -1.109375 C 0.984375 -0.929688 1.054688 -0.789062 1.171875 -0.6875 C 1.296875 -0.59375 1.453125 -0.546875 1.640625 -0.546875 Z M 1.640625 -0.546875 "/></g></g></g><g fill="#fcc931" fill-opacity="1"><g transform="translate(39.761876, 21.258247)"><g><path d="M 1.265625 0.0625 C 1.035156 0.0625 0.8125 0.0351562 0.59375 -0.015625 C 0.382812 -0.078125 0.210938 -0.15625 0.078125 -0.25 L 0.34375 -0.84375 C 0.46875 -0.757812 0.613281 -0.691406 0.78125 -0.640625 C 0.945312 -0.585938 1.109375 -0.5625 1.265625 -0.5625 C 1.578125 -0.5625 1.734375 -0.640625 1.734375 -0.796875 C 1.734375 -0.867188 1.6875 -0.925781 1.59375 -0.96875 C 1.507812 -1.007812 1.375 -1.050781 1.1875 -1.09375 C 0.96875 -1.132812 0.785156 -1.179688 0.640625 -1.234375 C 0.503906 -1.285156 0.382812 -1.367188 0.28125 -1.484375 C 0.175781 -1.597656 0.125 -1.753906 0.125 -1.953125 C 0.125 -2.128906 0.171875 -2.285156 0.265625 -2.421875 C 0.359375 -2.554688 0.5 -2.664062 0.6875 -2.75 C 0.875 -2.832031 1.101562 -2.875 1.375 -2.875 C 1.5625 -2.875 1.742188 -2.851562 1.921875 -2.8125 C 2.097656 -2.769531 2.253906 -2.707031 2.390625 -2.625 L 2.15625 -2.03125 C 1.882812 -2.175781 1.625 -2.25 1.375 -2.25 C 1.21875 -2.25 1.101562 -2.222656 1.03125 -2.171875 C 0.957031 -2.128906 0.921875 -2.070312 0.921875 -2 C 0.921875 -1.925781 0.960938 -1.867188 1.046875 -1.828125 C 1.128906 -1.785156 1.269531 -1.742188 1.46875 -1.703125 C 1.675781 -1.660156 1.847656 -1.613281 1.984375 -1.5625 C 2.128906 -1.507812 2.253906 -1.425781 2.359375 -1.3125 C 2.460938 -1.195312 2.515625 -1.039062 2.515625 -0.84375 C 2.515625 -0.675781 2.46875 -0.523438 2.375 -0.390625 C 2.28125 -0.253906 2.140625 -0.144531 1.953125 -0.0625 C 1.765625 0.0195312 1.535156 0.0625 1.265625 0.0625 Z M 1.15625 0.953125 C 1.09375 0.953125 1.023438 0.941406 0.953125 0.921875 C 0.878906 0.910156 0.820312 0.890625 0.78125 0.859375 L 0.890625 0.5625 C 0.960938 0.601562 1.046875 0.625 1.140625 0.625 C 1.265625 0.625 1.328125 0.582031 1.328125 0.5 C 1.328125 0.4375 1.269531 0.40625 1.15625 0.40625 L 1 0.40625 L 1.109375 -0.03125 L 1.5 -0.03125 L 1.453125 0.203125 C 1.566406 0.210938 1.648438 0.25 1.703125 0.3125 C 1.765625 0.375 1.796875 0.445312 1.796875 0.53125 C 1.796875 0.65625 1.738281 0.753906 1.625 0.828125 C 1.507812 0.910156 1.351562 0.953125 1.15625 0.953125 Z M 1.15625 0.953125 "/></g></g></g><g fill="#fcc931" fill-opacity="1"><g transform="translate(42.362924, 21.258247)"><g><path d="M 1.578125 -2.875 C 1.878906 -2.875 2.148438 -2.8125 2.390625 -2.6875 C 2.628906 -2.5625 2.8125 -2.382812 2.9375 -2.15625 C 3.070312 -1.9375 3.140625 -1.6875 3.140625 -1.40625 C 3.140625 -1.125 3.070312 -0.867188 2.9375 -0.640625 C 2.8125 -0.421875 2.632812 -0.25 2.40625 -0.125 C 2.1875 0 1.929688 0.0625 1.640625 0.0625 C 1.347656 0.0625 1.085938 0 0.859375 -0.125 C 0.628906 -0.25 0.453125 -0.425781 0.328125 -0.65625 C 0.203125 -0.882812 0.140625 -1.144531 0.140625 -1.4375 L 0.140625 -1.578125 L 2.328125 -1.578125 C 2.296875 -1.765625 2.210938 -1.914062 2.078125 -2.03125 C 1.941406 -2.144531 1.773438 -2.203125 1.578125 -2.203125 C 1.441406 -2.203125 1.300781 -2.171875 1.15625 -2.109375 C 1.007812 -2.054688 0.894531 -1.976562 0.8125 -1.875 L 0.34375 -2.375 C 0.476562 -2.519531 0.65625 -2.640625 0.875 -2.734375 C 1.101562 -2.828125 1.335938 -2.875 1.578125 -2.875 Z M 1.640625 -0.546875 C 1.828125 -0.546875 1.976562 -0.59375 2.09375 -0.6875 C 2.21875 -0.789062 2.296875 -0.929688 2.328125 -1.109375 L 0.953125 -1.109375 C 0.984375 -0.929688 1.054688 -0.789062 1.171875 -0.6875 C 1.296875 -0.59375 1.453125 -0.546875 1.640625 -0.546875 Z M 1.640625 -0.546875 "/></g></g></g><g fill="#fcc931" fill-opacity="1"><g transform="translate(45.65142, 21.258247)"><g><path d="M 1.359375 -1.015625 L 1.0625 -0.703125 L 1.0625 0 L 0.28125 0 L 0.28125 -2.8125 L 1.0625 -2.8125 L 1.0625 -1.640625 L 2.15625 -2.8125 L 3.03125 -2.8125 L 1.890625 -1.5625 L 3.09375 0 L 2.171875 0 Z M 1.359375 -1.015625 "/></g></g></g><g fill="#fcc931" fill-opacity="1"><g transform="translate(48.674586, 21.258247)"><g><path d="M 1.359375 -1.015625 L 1.0625 -0.703125 L 1.0625 0 L 0.28125 0 L 0.28125 -2.8125 L 1.0625 -2.8125 L 1.0625 -1.640625 L 2.15625 -2.8125 L 3.03125 -2.8125 L 1.890625 -1.5625 L 3.09375 0 L 2.171875 0 Z M 1.359375 -1.015625 "/></g></g></g><g fill="#fcc931" fill-opacity="1"><g transform="translate(51.697753, 21.258247)"><g><path d="M 1.578125 0.0625 C 1.160156 0.0625 0.832031 -0.0507812 0.59375 -0.28125 C 0.363281 -0.507812 0.25 -0.832031 0.25 -1.25 L 0.25 -2.8125 L 1.046875 -2.8125 L 1.046875 -1.28125 C 1.046875 -0.832031 1.226562 -0.609375 1.59375 -0.609375 C 1.9375 -0.609375 2.109375 -0.832031 2.109375 -1.28125 L 2.109375 -2.8125 L 2.90625 -2.8125 L 2.90625 -1.25 C 2.90625 -0.832031 2.785156 -0.507812 2.546875 -0.28125 C 2.316406 -0.0507812 1.992188 0.0625 1.578125 0.0625 Z M 1.171875 -3.03125 C 1.078125 -3.03125 1 -3.054688 0.9375 -3.109375 C 0.875 -3.171875 0.84375 -3.25 0.84375 -3.34375 C 0.84375 -3.4375 0.875 -3.515625 0.9375 -3.578125 C 1 -3.640625 1.078125 -3.671875 1.171875 -3.671875 C 1.253906 -3.671875 1.328125 -3.640625 1.390625 -3.578125 C 1.453125 -3.515625 1.484375 -3.4375 1.484375 -3.34375 C 1.484375 -3.25 1.453125 -3.171875 1.390625 -3.109375 C 1.328125 -3.054688 1.253906 -3.03125 1.171875 -3.03125 Z M 2.015625 -3.03125 C 1.921875 -3.03125 1.84375 -3.054688 1.78125 -3.109375 C 1.726562 -3.171875 1.703125 -3.25 1.703125 -3.34375 C 1.703125 -3.4375 1.726562 -3.515625 1.78125 -3.578125 C 1.84375 -3.640625 1.921875 -3.671875 2.015625 -3.671875 C 2.109375 -3.671875 2.179688 -3.640625 2.234375 -3.578125 C 2.296875 -3.515625 2.328125 -3.4375 2.328125 -3.34375 C 2.328125 -3.25 2.296875 -3.171875 2.234375 -3.109375 C 2.179688 -3.054688 2.109375 -3.03125 2.015625 -3.03125 Z M 2.015625 -3.03125 "/></g></g></g><g fill="#fcc931" fill-opacity="1"><g transform="translate(54.857604, 21.258247)"><g><path d="M 1.515625 -0.75 L 1.078125 -0.75 L 1.078125 0 L 0.28125 0 L 0.28125 -2.8125 L 1.5625 -2.8125 C 1.820312 -2.8125 2.046875 -2.769531 2.234375 -2.6875 C 2.421875 -2.601562 2.5625 -2.484375 2.65625 -2.328125 C 2.757812 -2.171875 2.8125 -1.984375 2.8125 -1.765625 C 2.8125 -1.566406 2.765625 -1.390625 2.671875 -1.234375 C 2.578125 -1.085938 2.441406 -0.972656 2.265625 -0.890625 L 2.875 0 L 2.015625 0 Z M 2.015625 -1.765625 C 2.015625 -1.898438 1.972656 -2.003906 1.890625 -2.078125 C 1.804688 -2.148438 1.679688 -2.1875 1.515625 -2.1875 L 1.078125 -2.1875 L 1.078125 -1.359375 L 1.515625 -1.359375 C 1.679688 -1.359375 1.804688 -1.394531 1.890625 -1.46875 C 1.972656 -1.539062 2.015625 -1.640625 2.015625 -1.765625 Z M 2.015625 -1.765625 "/></g></g></g><g fill="#c8d9ee" fill-opacity="1"><g transform="translate(57.831488, 21.258247)"><g/></g></g><g fill="#c8d9ee" fill-opacity="1"><g transform="translate(59.001355, 21.258247)"><g><path d="M 1.609375 -2.21875 C 1.804688 -2.21875 1.984375 -2.171875 2.140625 -2.078125 C 2.304688 -1.984375 2.4375 -1.847656 2.53125 -1.671875 C 2.632812 -1.503906 2.6875 -1.3125 2.6875 -1.09375 C 2.6875 -0.863281 2.632812 -0.660156 2.53125 -0.484375 C 2.4375 -0.316406 2.304688 -0.1875 2.140625 -0.09375 C 1.984375 -0.0078125 1.804688 0.03125 1.609375 0.03125 C 1.328125 0.03125 1.113281 -0.0507812 0.96875 -0.21875 L 0.96875 0 L 0.25 0 L 0.25 -2.984375 L 1.015625 -2.984375 L 1.015625 -1.984375 C 1.160156 -2.140625 1.359375 -2.21875 1.609375 -2.21875 Z M 1.453125 -0.5625 C 1.585938 -0.5625 1.695312 -0.609375 1.78125 -0.703125 C 1.863281 -0.796875 1.90625 -0.925781 1.90625 -1.09375 C 1.90625 -1.25 1.863281 -1.375 1.78125 -1.46875 C 1.695312 -1.5625 1.585938 -1.609375 1.453125 -1.609375 C 1.316406 -1.609375 1.207031 -1.5625 1.125 -1.46875 C 1.039062 -1.375 1 -1.25 1 -1.09375 C 1 -0.925781 1.039062 -0.796875 1.125 -0.703125 C 1.207031 -0.609375 1.316406 -0.5625 1.453125 -0.5625 Z M 1.453125 -0.5625 "/></g></g></g><g fill="#c8d9ee" fill-opacity="1"><g transform="translate(61.795372, 21.258247)"><g><path d="M 0.25 -2.171875 L 1.015625 -2.171875 L 1.015625 0 L 0.25 0 Z M 0.625 -2.421875 C 0.488281 -2.421875 0.375 -2.457031 0.28125 -2.53125 C 0.195312 -2.613281 0.15625 -2.710938 0.15625 -2.828125 C 0.15625 -2.941406 0.195312 -3.035156 0.28125 -3.109375 C 0.375 -3.191406 0.488281 -3.234375 0.625 -3.234375 C 0.757812 -3.234375 0.867188 -3.191406 0.953125 -3.109375 C 1.046875 -3.035156 1.09375 -2.941406 1.09375 -2.828125 C 1.09375 -2.710938 1.046875 -2.613281 0.953125 -2.53125 C 0.867188 -2.457031 0.757812 -2.421875 0.625 -2.421875 Z M 0.625 -2.421875 "/></g></g></g><g fill="#c8d9ee" fill-opacity="1"><g transform="translate(63.053684, 21.258247)"><g><path d="M 2.140625 -0.5625 L 2.140625 0 L 0.125 0 L 0.125 -0.453125 L 1.140625 -1.609375 L 0.15625 -1.609375 L 0.15625 -2.171875 L 2.09375 -2.171875 L 2.09375 -1.734375 L 1.09375 -0.5625 Z M 2.140625 -0.5625 "/></g></g></g><g fill="#c8d9ee" fill-opacity="1"><g transform="translate(65.288897, 21.258247)"><g><path d="M 2.5625 -2.984375 L 2.5625 0 L 1.828125 0 L 1.828125 -0.21875 C 1.691406 -0.0507812 1.476562 0.03125 1.1875 0.03125 C 0.988281 0.03125 0.804688 -0.0078125 0.640625 -0.09375 C 0.484375 -0.1875 0.359375 -0.316406 0.265625 -0.484375 C 0.171875 -0.660156 0.125 -0.863281 0.125 -1.09375 C 0.125 -1.3125 0.171875 -1.503906 0.265625 -1.671875 C 0.359375 -1.847656 0.484375 -1.984375 0.640625 -2.078125 C 0.804688 -2.171875 0.988281 -2.21875 1.1875 -2.21875 C 1.445312 -2.21875 1.648438 -2.140625 1.796875 -1.984375 L 1.796875 -2.984375 Z M 1.359375 -0.5625 C 1.484375 -0.5625 1.585938 -0.609375 1.671875 -0.703125 C 1.765625 -0.796875 1.8125 -0.925781 1.8125 -1.09375 C 1.8125 -1.25 1.765625 -1.375 1.671875 -1.46875 C 1.585938 -1.5625 1.484375 -1.609375 1.359375 -1.609375 C 1.222656 -1.609375 1.109375 -1.5625 1.015625 -1.46875 C 0.929688 -1.375 0.890625 -1.25 0.890625 -1.09375 C 0.890625 -0.925781 0.929688 -0.796875 1.015625 -0.703125 C 1.109375 -0.609375 1.222656 -0.5625 1.359375 -0.5625 Z M 1.359375 -0.5625 "/></g></g></g><g fill="#c8d9ee" fill-opacity="1"><g transform="translate(68.094973, 21.258247)"><g><path d="M 0.53125 -0.921875 C 0.53125 -0.921875 0.535156 -0.984375 0.546875 -1.109375 L 2.125 -1.109375 C 2.09375 -1.210938 2.03125 -1.296875 1.9375 -1.359375 C 1.84375 -1.421875 1.726562 -1.453125 1.59375 -1.453125 C 1.488281 -1.453125 1.394531 -1.4375 1.3125 -1.40625 C 1.238281 -1.375 1.164062 -1.328125 1.09375 -1.265625 L 0.6875 -1.6875 C 0.894531 -1.914062 1.203125 -2.03125 1.609375 -2.03125 C 1.867188 -2.03125 2.09375 -1.984375 2.28125 -1.890625 C 2.476562 -1.796875 2.628906 -1.660156 2.734375 -1.484375 C 2.835938 -1.316406 2.890625 -1.125 2.890625 -0.90625 C 2.890625 -0.695312 2.835938 -0.503906 2.734375 -0.328125 C 2.628906 -0.160156 2.484375 -0.03125 2.296875 0.0625 C 2.117188 0.164062 1.914062 0.21875 1.6875 0.21875 C 1.476562 0.21875 1.285156 0.171875 1.109375 0.078125 C 0.929688 -0.015625 0.789062 -0.144531 0.6875 -0.3125 C 0.582031 -0.476562 0.53125 -0.679688 0.53125 -0.921875 Z M 1.6875 -0.328125 C 1.8125 -0.328125 1.910156 -0.359375 1.984375 -0.421875 C 2.066406 -0.492188 2.117188 -0.585938 2.140625 -0.703125 L 1.25 -0.703125 C 1.269531 -0.585938 1.316406 -0.492188 1.390625 -0.421875 C 1.472656 -0.359375 1.570312 -0.328125 1.6875 -0.328125 Z M 1.6875 -0.328125 "/></g></g></g><g clip-path="url(#id2)"><g fill="#c8d9ee" fill-opacity="1"><g transform="translate(70.675919, 21.258247)"><g><path d="M 1.65625 -2.21875 C 1.925781 -2.21875 2.144531 -2.132812 2.3125 -1.96875 C 2.476562 -1.8125 2.5625 -1.570312 2.5625 -1.25 L 2.5625 0 L 1.796875 0 L 1.796875 -1.125 C 1.796875 -1.414062 1.675781 -1.5625 1.4375 -1.5625 C 1.3125 -1.5625 1.207031 -1.519531 1.125 -1.4375 C 1.050781 -1.351562 1.015625 -1.222656 1.015625 -1.046875 L 1.015625 0 L 0.25 0 L 0.25 -2.171875 L 0.96875 -2.171875 L 0.96875 -1.9375 C 1.050781 -2.03125 1.148438 -2.097656 1.265625 -2.140625 C 1.390625 -2.191406 1.519531 -2.21875 1.65625 -2.21875 Z M 1.65625 -2.21875 "/></g></g></g></g></svg>